<?xml version="1.0" encoding="utf-8"?>
<!-- Generator: Adobe Illustrator 25.3.1, SVG Export Plug-In . SVG Version: 6.00 Build 0)  -->
<svg version="1.1" id="Layer_1" xmlns="http://www.w3.org/2000/svg" xmlns:xlink="http://www.w3.org/1999/xlink" x="0px" y="0px"
	 viewBox="0 0 1000 684" style="enable-background:new 0 0 1000 684;" xml:space="preserve">
<style type="text/css">
	.st0{fill:#FDEC05;stroke:#000000;stroke-width:0.1;stroke-linecap:round;stroke-linejoin:round;}
	.st1{fill:#ECECEC;stroke:#000000;stroke-width:0.1;stroke-linecap:round;stroke-linejoin:round;}
	.st2{fill:#B21F7B;stroke:#000000;stroke-width:0.1;stroke-linecap:round;stroke-linejoin:round;}
	.st3{fill:#F6958B;stroke:#000000;stroke-width:0.1;stroke-linecap:round;stroke-linejoin:round;}
	.st4{fill:#E9569F;stroke:#000000;stroke-width:0.1;stroke-linecap:round;stroke-linejoin:round;}
	.st5{fill:#70B8E6;stroke:#000000;stroke-width:0.1;stroke-linecap:round;stroke-linejoin:round;}
	.st6{fill:#63CBE9;stroke:#000000;stroke-width:0.1;stroke-linecap:round;stroke-linejoin:round;}
	.st7{fill:#73BF44;stroke:#000000;stroke-width:0.1;stroke-linecap:round;stroke-linejoin:round;}
	.st8{fill:#E1E31A;stroke:#000000;stroke-width:0.1;stroke-linecap:round;stroke-linejoin:round;}
	.st9{fill:#00B9E9;stroke:#000000;stroke-width:0.1;stroke-linecap:round;stroke-linejoin:round;}
	.st10{fill:#62BB46;stroke:#000000;stroke-width:0.1;stroke-linecap:round;stroke-linejoin:round;}
	.st11{fill:#F0533A;stroke:#000000;stroke-width:0.1;stroke-linecap:round;stroke-linejoin:round;}
	.st12{fill:#72C061;stroke:#000000;stroke-width:0.1;stroke-linecap:round;stroke-linejoin:round;}
	.st13{fill:#168FCE;stroke:#000000;stroke-width:0.1;stroke-linecap:round;stroke-linejoin:round;}
	.st14{fill:#66BFEC;stroke:#000000;stroke-width:0.1;stroke-linecap:round;stroke-linejoin:round;}
	.st15{fill:#BED96C;stroke:#000000;stroke-width:0.1;stroke-linecap:round;stroke-linejoin:round;}
	.st16{fill:#83CDBA;stroke:#000000;stroke-width:0.1;stroke-linecap:round;stroke-linejoin:round;}
	.st17{fill:#76439A;stroke:#000000;stroke-width:0.1;stroke-linecap:round;stroke-linejoin:round;}
	.st18{fill:#6FC7B5;stroke:#000000;stroke-width:0.1;stroke-linecap:round;stroke-linejoin:round;}
	.st19{fill:#76C043;stroke:#000000;stroke-width:0.1;stroke-linecap:round;stroke-linejoin:round;}
	.st20{fill:#FEED7F;stroke:#000000;stroke-width:0.1;stroke-linecap:round;stroke-linejoin:round;}
	.st21{fill:#D41C5C;stroke:#000000;stroke-width:0.1;stroke-linecap:round;stroke-linejoin:round;}
	.st22{fill:#01B6DE;stroke:#000000;stroke-width:0.1;stroke-linecap:round;stroke-linejoin:round;}
	.st23{fill:#5BBA47;stroke:#000000;stroke-width:0.1;stroke-linecap:round;stroke-linejoin:round;}
	.st24{fill:#EE3F97;stroke:#000000;stroke-width:0.1;stroke-linecap:round;stroke-linejoin:round;}
	.st25{fill:#ED2A91;stroke:#000000;stroke-width:0.1;stroke-linecap:round;stroke-linejoin:round;}
	.st26{fill:#A97CB7;stroke:#000000;stroke-width:0.1;stroke-linecap:round;stroke-linejoin:round;}
	.st27{fill:#E60F8D;stroke:#000000;stroke-width:0.1;stroke-linecap:round;stroke-linejoin:round;}
	.st28{fill:#49BC8D;stroke:#000000;stroke-width:0.1;stroke-linecap:round;stroke-linejoin:round;}
	.st29{fill:#F78F39;stroke:#000000;stroke-width:0.1;stroke-linecap:round;stroke-linejoin:round;}
	.st30{fill:#5ABA47;stroke:#000000;stroke-width:0.1;stroke-linecap:round;stroke-linejoin:round;}
	.st31{fill:#F68926;stroke:#000000;stroke-width:0.1;stroke-linecap:round;stroke-linejoin:round;}
	.st32{fill:#D988BA;stroke:#000000;stroke-width:0.1;stroke-linecap:round;stroke-linejoin:round;}
	.st33{fill:#FEBD11;stroke:#000000;stroke-width:0.1;stroke-linecap:round;stroke-linejoin:round;}
	.st34{fill:#D0DD27;stroke:#000000;stroke-width:0.1;stroke-linecap:round;stroke-linejoin:round;}
	.st35{fill:#4785C5;stroke:#000000;stroke-width:0.1;stroke-linecap:round;stroke-linejoin:round;}
	.st36{fill:#E7E514;stroke:#000000;stroke-width:0.1;stroke-linecap:round;stroke-linejoin:round;}
	.st37{fill:#35B44A;stroke:#000000;stroke-width:0.1;stroke-linecap:round;stroke-linejoin:round;}
	.st38{fill:#FEC356;stroke:#000000;stroke-width:0.1;stroke-linecap:round;stroke-linejoin:round;}
	.st39{fill:#F6861F;stroke:#000000;stroke-width:0.1;stroke-linecap:round;stroke-linejoin:round;}
	.st40{fill:#0681BF;stroke:#000000;stroke-width:0.1;stroke-linecap:round;stroke-linejoin:round;}
	.st41{fill:#854299;stroke:#000000;stroke-width:0.1;stroke-linecap:round;stroke-linejoin:round;}
	.st42{fill:#FEE76A;stroke:#000000;stroke-width:0.1;stroke-linecap:round;stroke-linejoin:round;}
	.st43{font-family:'MyriadPro-Regular';}
	.st44{font-size:20px;}
	.st45{font-size:14px;}
	.st46{font-size:8px;}
	.st47{font-size:16.8813px;}
	.st48{font-size:16px;}
	.st49{fill:#FFFFFF;}
	.st50{font-size:25px;}
	.st51{font-size:18px;}
</style>
<path id="AL" class="st0" d="M654.7,528.1l0.5,0.4l2,2.9l1.4,0.5l1.9,1.3l1.4,3.2l0.1,2.2l-0.5,2.6l0.3,2.1l-0.8,0.8l0.7,2l0.2,1.9
	l1.2,2.2l1.2,1.1l1.3,2.4l1.6-0.2l1.3,1.1v1.1l1.1,1.8l-0.8,2.6l-1.7,0.8l-1.2,3.1l-0.3,2l-0.6,0.5l-1.9,0.3l-1.7,1.3l1,2.2
	l-0.9,0.7l-0.3,1.5l-0.7,0.7l-2.7-0.9l-0.7-2.5l-1.7-2.7l-4.9-2.6l-1.2-1.1l0.4-1.5l-0.1-1.4l-1.4-2.4l0.3-2.6l0.8-2.2l-0.3-2.7
	l0.1-2.1l-0.7-2.9l0.5-2.1l0.9-1.3l-0.2-2.2l-1.5-1.1l-1.6-0.2v-3.1l-0.3-0.6h1.7l-1.7-2.8l3.2-5.3l1.1,0.3l0.8,2.1L654.7,528.1
	L654.7,528.1z"/>
<path id="AD" class="st1" d="M423.4,528.8l-2.8,1.1l-0.7-0.4v-2.1l0.9-0.7l2.6,0.6V528.8L423.4,528.8z"/>
<path id="AM" class="st2" d="M974.6,572.4l-3.2-2.8l-2.3-1.7l-1.6-0.7l-3.5,0.4l-2.9-0.9l-1.8-0.9l0.5-0.6l-1.9-3l-0.8-1.9l1-1.4
	l0.2-2.3l-1.7-3.3l-1.7-1.2l-1.3-1.6l4.4-0.3l5.3-1.3l3.2,0.3l1.1-0.2l3.5-0.1l-0.5-0.7l2.3-0.5l1.3,1.5l1.6,1l-0.9,0.9l2.3,1h1.2
	l3.3,2.5v0.7l-1.9,1.5l-0.2,1.1l3.2,3.4l2.4,1.4l3.2,1.5l0.2,0.9l-0.9,2.5h-3l0.6,0.9l1.9,1.2l6.1,4.4l1.5-0.3l2.2,0.9l0.2,1.3
	l-1,1.4l1.9,1.4l0.8,1.5l-1.8,0.5l1.4,1.5l0.5,2.6l-2.2-0.1l-2.5,0.5l-3-4.7l0.1-1l-3.1-2.1l0.1-1.7l-0.8-1.2l-1.7,0.2l-1.9,0.9
	l-2.9-1.6l-1.2,0.2l-0.3-1.1l-1.8-1.7L974.6,572.4L974.6,572.4z"/>
<path id="AT" class="st3" d="M607.8,434.9l-0.9,2.4l0.1,0.8l1.6,2.9l2.3,2.9l-0.6,0.7l-0.6,1.9l0.7,2l-3.9,0.3l-2.5-0.9l-1.3,1.4
	l2.6,0.7l0.5,1.1l-0.5,1.4l-2.2,1.2l0.4,1.5l-0.5,0.7l1.1,1.6l-0.3,1.8l-2.5,0.5l-1.8,1.7l-1.3,0.9l-0.1,1.9l-2.4-0.5l-1.6,0.2
	l-2.3,1.1l-2.8-0.2l-2.6,0.2l-1.9,0.7l-1,1.3l-3,1.2l-5-0.7l-5-0.9l-2.6-0.5l-4-0.3l-8.6-1.5l-1.1-0.5l-3.1-3.5v-2.3l-4.7,1.5
	l-3.1-0.2l-3.4,0.3l-1.4,0.6l-1.2,2.2l-1.1,0.4l-2.1-0.4l-0.9-0.8l-3-0.3l-0.5-1.5l-0.8-0.3l-2,1.9l-2.3-0.4l-1.5-0.8l-0.4-1
	l-3.3-0.8l0.3-0.8l-1.1-2.5l1-3l-0.9-0.7l1.7-0.5l0.7-0.5l3.5,1.6l0.9,1.4l1.2,0.3l-0.1,1.3l1.6-0.5l1-1.6l0.2-1.9l2.8-0.1l2.7,0.4
	l1.4,1.9l3.8-0.5l1.1-0.9l3.9-1.5l5.7-0.5l0.1-1.4l2,0.3l1.5,0.8l2.5-0.5l1.1,0.5l0.2,1.1l1.2,0.9l1.7,0.4l0.3-1.5l-0.3-1.9
	l-1.7-0.3l0.6-1.3l-0.1-1.3l-2.5-2.8l0.6-1.3l3.1-1.8l2.9-0.8l1-1l0.7-2.9l2.3,0.9l1.3-0.9l0.2-2.8l2.2,1.2l0.8,1.3l3.9,0.4l1.4-0.7
	l2.5,0.4l0.1-1.1l1.3-1.6h1.2l0.3-3.2l1.2-0.2l1.6,0.8l1.4-0.4l4.8,1.7l1.5-0.1l3,1.7l3.8,0.2l1.2-0.9l5.1,1.5L607.8,434.9
	L607.8,434.9z"/>
<path id="BE" class="st4" d="M470,401.8l1.6-0.5l0.8,0.8l1.2,0.1l3,2.3l-0.4,1.5l1.7,0.7l0.4,2L476,410l-0.6,1.7l-1.7-0.7l-1.3,1.3
	l-1.4,2.5l-0.2,1.7l2,2.4l-1.1,1.7l-3.4,0.4l-2.8-2.6l-3.3-1.5l-1.7-0.1l-0.4-2l-0.6-0.6l0.8-2.7l-1.9,0.6l-0.5,1.4l-1.3,0.6
	l-2.2,0.3l-2.3-0.3l-0.5-0.6l0.7-1.4l-0.7-0.7l0.4-1.6l-1.6-1.1l-3.6-0.4l-0.9,0.3l-0.6-2l-4.2-1.1l-0.5-2l-1.6-1.8l-3.2,1l-2.9-2.4
	v-1.2l-0.9-2.2l5.1-2.5l4.7-1.7l0.3,1.3l1.2,0.7l1.2-0.6l3.9,1.1l3.2-1.5l0.6-1.2l2.1,0.3l-0.2-0.9l1.4-0.7l1.5,0.8l1.5-1l1.1,1.3
	l2.5-0.8l0.5,1.6l2.6,1.4l1.9-0.4l1.7,1.3l2.6,1.1l-1,2.9l-1.1,1.3L470,401.8L470,401.8z"/>
<path id="BG" class="st5" d="M759.6,509.6l0.2,3.7l-0.9,1.8l-2-0.6l-2.2,0.5l-1,2l-1.2,1.2v2.6l0.4,4.2l-1.6,0.7l-2.9,3.7l3,1.8
	l1.7,2.2l2.4,2.5l0.5,1.2l-1.7-0.2l-0.9,0.4h-1.8l-1.5,0.6l-3.4-2.5l-3.5,0.3l-1.5,1.1l-3.4,0.4l-1,2.2l-1.9,0.3l-0.3,1.4l-1.6-0.5
	l-1.6,1.1l0.7,1l0.9,2.7l-0.2,0.8l-2.5,1.2l-1.8-0.3l-3.2,0.4l-3.4,0.9l-1.7-1.1l-3.7-1.2l-0.9,0.6l-2.4-1.4l-1.2-1.7l-1.6,0.5
	l-4.2-0.1l-0.2,0.9l-1.9,0.2l-3,1.1L699,546l-2.4,0.2l-1,1l-3-0.2v-4.2l0.5-1.7l-0.9-1l-1.7-3.3l-3.4-1.8l-3.3-3.2l1-0.3l1.1-1.7
	l-1.4-2.9v-3.3l1.1-0.6l1.8-0.1l1.1-1.6l1.6-1.7l0.3-1.4l-1.6-1l-1.3-1.6l-2.9-1.5l-2.4-3.9l-0.6-2.4l0.4-2.3l2.1-1l0.2-1.9l0.9-0.7
	l4.3,2.5l-1.8,2l0.9,1.8l3.7-0.6l3.9,0.3l5.3,1l3.5,0.4l2.5-0.5l9.4,1.7l4.2,0.2l2.3-0.6l1.6-0.9l1.2-1.6l3.3-2.1l3.2-1.2l4.4-0.9
	l2.9-0.4l4.5,2.3l3.2,0.4l0.9,0.6l1.7-0.5l2.5,2.6l2.2,0.7l2.6,0.5L759.6,509.6L759.6,509.6z"/>
<path id="BA" class="st6" d="M638.2,492.2l2.8-0.7l1.5,0.8l-0.5,2.5l-1.6,2.7l-0.1,2.6l0.5,0.8l2.4,1.2l3.3,2.9l-0.3,0.8l-3.1-0.1
	l-0.5,0.8l3.2,3.7l-0.2,2.2l-2.5-0.3l-0.7,0.8l-3.2,0.5l1.4,2.2l-2.3,0.2l-2,1.7l-0.5,1.7l0.1,1.5l-1.7,0.2l-0.5,0.7l0.6,3l1.1,1.6
	l-0.1,0.8l-1.1,1l-1.7-0.7l-6.2-3.8l-0.6-0.9l-1.6,0.1l-1.1-0.6l0.3-1.6l-3-2.5l-1.5-1.6l-0.4-2.2l-2.4-1.1l-5-4.1l-1.7-2l-2.8-2.3
	l-2.3-2.4l-1.3-4l-3.4-3.2l-1.9-1.3l-0.1-1.4l0.3-5l1.2-0.6l1.8,0.4l1.7,1.8l1.8,1l2.7-3.2l3.2,0.3l1.5-1.2l2.7,1.6l2.5,0.1l2.8,0.7
	l1.7-0.6l1.6,1.3l2.2-1l1.8,0.3l1.8-0.2l2.6,0.7l2.2,0.2l1.1,0.8l1.3,2.2L638.2,492.2z"/>
<path id="BY" class="st7" d="M724.5,321.5l1.8,1.3l1.2-0.4l1.9-0.1l3.1,2.2l1.6-0.9l1.5-0.3l3.6,1.2l0.2,2.3l1.7,1.5l2.1-1.3
	l2.7-1.1h3.4l2.7,0.9l2.4,1.8l3.5,1.4l0.4,2.5l-0.6,1.8l2.1,2.1l0.5,1.3l-1.3,2v2l4.1,2l0.5,0.5l-0.5,1.8l1.4,0.6l1.8,2.4l1.5,1.4
	l4.9,2.1l0.7,0.8l-0.4,2.8l5.3,0.5l3.2,1.3v1.1l0.7,1.1l2.8,1.4l0.6,1.7l-2.6,1l-0.3,0.9l-3,1.8l-3.5-0.2l-2.4-1.5l-2.9,0.1
	l-1.4,2.7l3.9,3.3l0.6,1l-0.2,1.5l1,1.5l0.5,3.3l1.6,1.4l1.3,1.8l-5-0.1l-1.4,0.8l-1.7-0.4l-1.1,0.5l-2.2,2.3l-0.8,1.2l-1,3.3
	l1.8,3.6l-0.8,1.4l-2.7-0.9l-0.5-1.2l-2-1.1l-7.1,0.6l-2.3,0.8l-0.6-0.5l-2.5-3l-3.8,1.6l-0.6,1.1l-1-0.3l-0.8-1.3l-5.1-1l-1.9,0.7
	l-1.9-0.5l-1.2,1.7l-0.8-1.4l-1.1-0.4l-3,0.1l-1-0.3l-1.8-2.1H722l-6.1-0.9l-6.5-1.5l-7.8-0.4l-2.4,0.1l-2.3,0.5l-5.9,0.5l-0.8,1.4
	l-1.6,1.6l-1.9,1.2l-1.1-0.5l-1.9-0.3l-1.1,0.5l0.1,1.4l-1-1.6l-0.1-1.3l0.8-1.5l-0.4-1.1l0.2-2.4l-0.8-1l-1.8-1l-3.3-1.3v-1.2
	l2-2.7l0.8-0.5l4-1.7l0.6-1.6l-0.9-3.9l-1.7-3.6l-2.9-4.9l-2.1-5.1l2.9,0.4l1.6-0.3l3.7-0.3l1.6,0.9l3.3-1.3l1.8,0.1l0.8-2.6l2,0.2
	l1.4-1.2l2.1-0.5l1-0.7l1.7,2.3l2-0.2v-1l-0.9-1.1l-1.9-0.5l0.5-2l1-1.5l-0.4-2.3l1.1-3l2.6-0.6l0.8-0.6l1-2l3.6,0.1l0.4-1.1l1.3-1
	l-3.9-1l0.7-3.1v-1.8l2.6-0.6l1.2-1.5l1.1-0.3l3,0.4l3.1,0.1l0.4-1.7l2.5-2.4l1.4-0.8L724.5,321.5L724.5,321.5z"/>
<path id="CH" class="st8" d="M514.1,449.1l0.8,1.1l2.6,1.3h1.2l0.9,0.7l-1,3l-0.5,1.5l0.1,1.7l1.2,0.1l3.3,0.8l0.4,1l1.5,0.8
	l2.3,0.4l2-1.9l0.8,0.3l0.5,1.5l-0.5,3.1l0.5,1.8l-1.9-0.2l-1-0.9l-1.3,0.3l-0.6,1.8l1.5,3.5l-1.2,0.3l-1.4-1.9l-0.7-0.1l-2.9,1.1
	l-2-0.8l-0.8-2.1l-2,0.1v2.9l-0.5,1.1l-2.2,2.6l-0.2,1l0.7,1.7l-1.2,0.7l-0.9-1.4l-1.3-1.2l0.4-1.2l-2.2-0.6l-2.4-2l-0.2-2.5l-1-0.6
	l-3.4,2.9l0.6,1.5l-1.6,2.2l-2.4,1.4l-3.1-0.8l-2.6,1l-2.4,0.5l-1.4-0.7l-0.9-1.4l-2.3-2.3l0.5-1.7l-0.8-2.2l-2.2-0.3l-1.9,0.1
	l-2.3,1.5l0.5,1.3l-2.3,1.6l-1.4-0.1v-1l1.5-1l0.3-1.5l-0.8-0.7l1.1-2.9l3-2.2l0.5-2.9l2.1-0.9l3.8-4l0.6-0.9l-1.3-1.1l1.8-1.4h1.1
	l0.8,0.8l2.7-0.3l0.8-1.4l1.5-0.7l1,0.3l2.8,0.1l3.3-0.6l2.6,0.2l-0.2-1.5l1.3-1.2h1.3l1.4,1l0.8-0.2l1.1,0.9L514.1,449.1
	L514.1,449.1z"/>
<path id="CZ" class="st9" d="M578.9,400.5l2.1-0.4l-0.1-1.9l3.3,0.8l0.3,1.1l1,1.1l4.6,1.1l2.7,1.1l0.8,0.9l3.2-0.7l1.8,1.2
	l-0.7,1.1l-1.6,1.2l1.6,0.9l2,1.8l1.5,1.9l1,0.4l3.5-2.5l-1.7-2.4h1.3l2.2,0.6l3.3,1.9l3.6-0.7v1.6l-1.4,0.5l2.7,2.3l1,0.6l1.8-1
	l3.5,1.8l0.5-0.2l2.7,0.8l0.5,1.8l2.8,2.2l0.5,1.6l-2.8,0.3l-2,1.5l-0.6,0.8l-2.3,1.2l-0.7,3l-1.6,0.8l-2.1,1.9l-1.5,0.7l-1.7,0.2
	l-3.6-0.5l-1.4,1.2l-1.1,2.8l-1-1.6l-5.1-1.5l-1.2,0.9l-3.8-0.2l-3-1.7l-1.5,0.1l-4.8-1.7l-1.4,0.4l-1.6-0.8l-1.2,0.2l-0.3,3.2h-1.2
	l-1.3,1.6l-0.1,1.1l-2.5-0.4l-1.4,0.7l-3.9-0.4l-0.8-1.3l-2.2-1.2l-0.6-0.7l-2.9-2.2h-1.3l-1.3-1.6l-2.5-1.5l-2.9-2.6h-1.3l-2.3-2
	l-1.8-2.7l-1.4-1.5l1.2-1.7l-0.6-1.6l-2.3-1.3l-2.5-3.4l0.5-0.7l1.9,2l1.9-2.6l1.1-0.6l2.6-0.6l2.1,0.4l0.8-1.3l2-0.3l0.6-1l1.6-0.7
	l1.1,0.1l0.6-1.2l4.4-1l3.5-1.5l1.9-0.6l-1.5-1.5l0.8-0.6l2.2,0.4l1.5,1.5v0.9l1.4,0.6L578.9,400.5L578.9,400.5z"/>
<path id="DE" class="st10" d="M567.9,355.2l-3.4-0.1l-0.2-1.7l-1.1-1l-0.1-1l4.7,2.6L567.9,355.2z M533.1,347.1h-1.8l-1.4-0.7l0.8-1
	l1.7,0.4L533.1,347.1L533.1,347.1z M561.4,347.6l-1.3,0.7h-1.3l-1.3,1.3l-2.1-1.1l-0.5-1.1l0.1-2.2l0.6-1.4l2-0.9l0.9,1.2l1.7,0.6
	l-0.5,1.7L561.4,347.6L561.4,347.6z M514.8,341l1.8,0.7l1.6,1.6l0.1,1.4l-1.7,1.6l3.2-0.3l0.8,1.2l1.7-0.4l4.5,1.8l3.2-0.9l0.7,1.4
	l-0.6,1.5l-2.2,1.6l1.4,1.2l2.1-0.2l3.6,0.9l3.3-2.5l1.1-0.5l3.6-0.3l5.1-4.5l5.3,0.9l1.5,1.9l3.7,2.1l3.2-0.2l1.3,2l0.8,2.5
	l1.9,1.3l2.8,0.5l0.7,2.6l1.8,4.1l-0.3,2.7l-1.9,1.8l-0.7,1.6l1.6,1.4l3.3,2.1l1.4,1.7l-0.6,2.6l2,2.3l0.8,1.9l-0.7,2.6l-0.8,1.1
	l1.9,3.1v1.6l2.2,0.9l1.6,3.2l-0.4,2.3l-1.6,3.6l-0.9,0.7l-1.4-0.6v-0.9l-1.5-1.5l-2.2-0.4l-0.8,0.6l1.5,1.5l-1.9,0.6l-3.5,1.5
	l-4.4,1l-0.6,1.2l-1.1-0.1l-1.6,0.7l-0.6,1l-2,0.3l-0.8,1.3L555,407l-2.6,0.6l-1.1,0.6l-1.9,2.6l-1.9-2l-0.5,0.7l2.5,3.4l2.3,1.3
	l0.6,1.6l-1.2,1.7l1.4,1.5l1.8,2.7l2.3,2h1.3l2.9,2.6l2.5,1.5l1.3,1.6h1.3l2.9,2.2l0.6,0.7l-0.2,2.8L568,436l-2.3-0.9L565,438l-1,1
	l-2.9,0.8l-3.1,1.8l-0.6,1.3l2.5,2.8l0.1,1.3l-0.6,1.3l1.7,0.3l0.3,1.9l-0.3,1.5l-1.7-0.4l-1.2-0.9l-0.2-1.1l-1.1-0.5l-2.5,0.5
	l-1.5-0.8l-2-0.3l-0.1,1.4l-5.7,0.5l-3.9,1.5l-1.1,0.9l-3.8,0.5l-1.4-1.9l-2.7-0.4l-2.8,0.1l-0.2,1.9l-1,1.6l-1.6,0.5l0.1-1.3
	l-1.2-0.3l-0.9-1.4l-3.5-1.6l-0.7,0.5l-2.2-1.2l-5.1-2.3l1,1.6l-3.7,0.2l-1.1-0.9l-0.8,0.2l-1.4-1h-1.3l-1.3,1.2l0.2,1.5l-2.6-0.2
	l-3.3,0.6l-2.8-0.1l-1-0.3l-1.1-1.3v-1.5l0.6-2l-0.2-2.4l0.3-1.5l1-1.8l1.4-5.5l3.5-3.8l-0.1-1.3l-1.6-0.6l-4.8-0.8l-2-1.4l-3,0.6
	l-2.1-0.1l-0.3-0.9l-1.4-0.4l-1.8,0.7l-3.5-4.3l-1.4-0.1l0.6-3l0.9-0.9v-1.4l-2.8-1.1l-1.5-1.6l-0.3-2.2l0.6-1.7l2.3-1.3l-0.4-2
	l-1.7-0.7l0.4-1.5l-3-2.3l0.6-2.4l-1.9-1.2l0.5-0.8l2.2-1.6l-0.7-1.2l1.3-2.8V391l-3.1-4.1l0.7-1.1l1.8-0.7l2.3,0.8l4.5-1.3l0.7-1
	l-1-0.9l0.3-0.9l2.6-1.6l0.6-2.6l-0.8-1l-2.6-0.3l-0.7-1l0.6-1.6l3.1,0.1l1.1-3.8l0.7-1.7l-0.1-4.3l-1.7-1.4l0.5-2.7l1.1-1.4
	l0.9-0.4l4-0.3l4.5,0.1l1.9,2.2l-0.6,1.2l1.6,0.3l0.9-2.4l1.4,0.8l1.1-0.1l-0.5-1.7l0.2-1.6l0.9-1.4l3.3,0.6l3.6-0.3l0.1-0.6
	l-2.8-0.5l-0.9-1.1l-0.2-3.9l-1.5-0.8l-1.6,0.3v-1.5l3.4-1.1v-1l-3.4-3.8l-0.2-1.6l2.7,0.1l5.2,1.3l3.1-0.7L514.8,341L514.8,341z"/>
<path id="DK" class="st11" d="M533.5,340l2.1,1l2.4,0.3l0.4,1.9l-3.5,0.7l-5.1-2.1l0.1-2.5l2.3-0.2L533.5,340L533.5,340z
	 M547.2,338.9l-2.3,0.1l-1.9,1l-0.3-1.2l1.6-1l1.2,0.2L547.2,338.9z M518.4,340.1l-1.2,0.2l-1.7-0.5l-0.6-2.3l2.7,1.1L518.4,340.1
	L518.4,340.1z M526.4,342.1l-1.4-1.5l2.5-2.9l0.7-0.2L526.4,342.1z M576.5,338.1l-2.4-0.2l-2.4-1l0.1-2l0.5-0.9l4.5,2.3L576.5,338.1
	L576.5,338.1z M524.4,329.4l2.3,4.3l-0.1,2.8l-1.8,1.2h-2.1l-5.4-1.7l-1.7-2.9l-0.1-2.3l4.8-1.4l2.6,0.8L524.4,329.4z M547.7,329.6
	l-1,0.6l-0.7-0.9l0.9-0.9L547.7,329.6L547.7,329.6z M523.8,326.8h-0.9v-3l1.5,1.6L523.8,326.8z M546.4,326.8l0.1,1.5l-0.7,0.7
	l-2,0.7l-1.1,1.8l2,1.2l0.5,1.5l-1,0.7l-2.6,0.7v5.6l-2.2,0.6l-1.5-2.1l-0.1-0.9l-1.3-3.1l-2-0.4l-2.2,0.1l-1.5-1.8l0.1-2.1l-1-2
	l-1.3-0.6l0.4-1.4l3.1-0.2l1.5-1.9v-0.9l1.8-0.2l0.8,0.7l0.1,2.6l1.6,0.5l1.1-2.9l-0.9-1.1l3.9-2.2l1.1-0.1l3,0.9l-0.4,2.1
	L546.4,326.8L546.4,326.8z M514.8,341l-1.5-0.4l-3.1,0.7L505,340l-2.7-0.1l-0.5-2.1l-0.8-1.4l1.1-0.3l-0.9-3.9l-3.2-1.3l-2.5-1.4
	l0.5-5.6l-1-2.3l0.1-6.9l1.3-0.1l3.1,0.8l1.5,0.9l0.6-1.9l1.6-1.6l2-0.8l1.6,1.3l0.3-4.5l-1.6-0.5l-1.3,0.4l-1.3,1.9l-1,2.4
	l-1.9,0.2l-1.5,0.7l-2.4-1.4l0.1-1.4l1.6-1.9l2-1.9h2.2l1.6-0.6l3.9,0.1l2.8-1.3l2.8-3.6l1.5-1.5l3.3-0.5l3-1.7l-0.8,2.5l1.2,1.7v3
	l-0.9,1l-1.4,2.5l0.2,5.6l2.5,1.5h4.1l1,1.1l-0.7,2.2l-2.6,1.4h-0.9l-1.4-1.1l-1.1,0.9l-1.2,5.1l-2-0.1l-1.2,0.5l1.4,1.2l-1.3,0.8
	l-3.4,3.1l1.1,3.4l-0.2,0.9l-1.5,1.3l-0.6,1.1l2.3,0.3L514.8,341L514.8,341z"/>
<path id="EE" class="st12" d="M655.5,285.3l3.9,0.2l4,1.8l-1.8,0.7l-3.7,2.5l-0.3,0.5l-2.6-0.1l-1.4,0.2l-1,0.9l-0.9,2.8l-1.6,0.5
	l-0.3-0.9l1.6-1.8l-1.5-1.4l-1.9-0.7l0.9-1.8l-1.6-1.6l1.5-0.2l1,0.5l2-0.5l0.5-1L655.5,285.3L655.5,285.3z M663.8,286.3l-0.9,0.2
	l-2.4-1.1l1-1l1.9,0.5L663.8,286.3z M658.4,282.3l-0.8,0.7l-0.9-0.6l-0.9,1.6l-1.3,0.3l-1.9-2.5l-2.9-0.5l-1.3-0.7l4.5-0.4l1.2-1.6
	l1.3,0.1l0.4,0.9l2.1,0.3l0.9,1L658.4,282.3L658.4,282.3z M711.6,301.2l-1.9-0.2l-3.4-1l-4,1.2l-2.8-1.1l-3.5-2.7l-0.6-0.7l-2.3-0.5
	l-5.6-2.5l-1.1,0.7l-1.5-1l-8.4,2.8l1-3.4l0.1-3.6l-2.3-0.4l-0.9,1.3l-1.3,0.3l-4.1-1.3l-1.2-2.1l-1.6-1.1l-0.8-1.2v-1.8l-1.5-2
	l0.7-1.1l-0.7-2.8l3-1.2l3.3-0.2l0.9-1.3l2-1.3l2.3,0.2l3.1-1l6.3,0.1l0.4-1.7h3.2l7.6,1.2h1.8l2.8,1.2l1.4,0.3h4l6.3,0.5l1.2-1
	l1.5,1.2l-1,1.4l-1.2,0.4l-0.9,3.2l-0.8,1l-1.7-0.3l-2.5,0.2l-2,0.5l-1.3,1.1l0.1,1.1l2.6,2.3l1.4,2.8l2.6,2.2l0.8,1.3l2.4,2.9
	l1.8,2.5l-2.3,0.6l-1.2,2L711.6,301.2L711.6,301.2z"/>
<path id="FI" class="st13" d="M646.5,260l2,0.2l-0.6,2.8l-2.3-1.8L646.5,260L646.5,260z M644.6,260.5l-2.1-0.6l0.9-0.8L644.6,260.5
	L644.6,260.5z M638.1,257.8l-1.5,0.7l-0.3-1.7L638.1,257.8z M663.6,194.9l-1.5,0.5l-1.3-0.3l-0.2-0.9l2-0.6L663.6,194.9z
	 M693.7,140.3l-3.7,1.3l1.6,0.8l0.8,1.2l-2,3.2l0.1,0.6l3.1,4l7.2,1.7l2.3,1.8l3.6,2.3l1.8,0.9l0.1,1.9l-3,3l-2.6,3.1l-1.2,1.7
	l0.4,1.7l2.6,2.1l2.3,2.2l3,3.5l3,2.5l3,4.2l0.4,1.4l-3.7,0.7l1.2,0.9l-0.6,1.3l0.3,1.9l-0.5,1.5l1.9,0.3l0.3,1.3l-1.7,1v0.9
	l1.4,1.7l1,0.6l3.2,0.6l0.9,1.6l-1,1.7l1.8,2.2l4.5,1.8l0.7,1.3l0.2,1.7l-2.4,3l-2,0.8l0.7,0.8l4.5,2.6l6.6,2.9l2.6,1.3l2.1,1.9
	l2.2,1.6l0.5,1l-1.6,4.5l-0.7,1.2l-2.2,2.2l-3.4,2.8l-2.3,2.3l-5.3,5.9l-1.9,1.5l-2.1,2.2l-4.9,3.3l-0.7,0.8l-2.5,1.5l-5.6,5.2
	l-3.5,1l-2.6-1.1l-1.8,0.2l-1.2,0.8l-2.5,0.2l-2,0.6l-1-0.7l-0.7,0.6l-1.9,0.2l-2-1l0.3,1.5l-3.3,1.5l-0.8-0.9l-2,1l-2.1,0.2
	l-1.1,0.8l-5.9,1.1l-1.5,1.3l-1.2-0.3l-6.7,1.1l-2.9-0.2l-2.7,2l-1.8,0.4l1.5-3l-2.4-1.1l-1.2-1.6l-0.7,0.4l-0.3,1.5l-1.5,0.8
	l-2-0.1l-0.4-2.4l0.8-2.3l-3.6-0.6l-3.8-1.4l-0.9-0.1l-0.7-1.3l-2,0.9l-2.1-0.9l-1.7-5.3v-1.3l0.9-1.6l-0.1-3.4l-0.6-2l1.1-0.6
	l-0.9-1.6l-2.2-3l-1.6-1.1l0.5-3.3l-0.6-1.6l-1.9-1.1l-1.1-2.9l0.6-2.4l2.4-2.2v-1.2l0.9-1.1l-0.5-1.3l2.7-0.5l1,0.4l2.4-0.4l1.9-1
	l-1.1-1.8l1.5-0.7l1.2-1.2l-0.1-1l2.3-0.5l2.4-1.9l2.3-1.1l2.3-1.9l1.1-0.1l0.3-1.3l2.5-1.9l0.8-1.6l2.3-1.8l2.2-3.9l3.8-1.2
	l3.8,0.3L668,195l1-0.3l-0.6-1.3l-1-0.6v-4.6l-1.3-0.9l-4.5-1.6l-1.7-0.1l-1.2-1.2l-4.6-0.7l-1.6-2.5l-1.9-2.2l-1.8-0.6l-1.3-2.6
	v-1.3l1.5-1.3l-0.1-1.8l0.7-1.4l-0.6-0.9l-3.3-2.6l-0.8-1.6l0.1-1.1l1-0.8l-0.6-1.3l-2.8-0.4l0.3-1.9l-0.7-1.4l-0.4-2.4l1.1-1
	l-1.8-0.9l-1.9-1.5l-1.4-0.1l-1.2-1.6l-3.5-1.8l-8.3-1.7l-4.2-1.8l-4.8-2.3l-2.9-1.1l-0.4-0.9l-2.9-0.8l0.5-0.4h2.1l1.9,0.4l0.5-0.6
	l-1-1.4l1.9-1.1h3.6l7.9,5.5l1.4,1.8l6.9,0.6l0.8,0.5l1.8-0.1l3.7-0.9l1.2-1.2l1.5,0.1l3.6,1.1l3.9,0.8l2.6,0.8l1.3-0.6l0.5-1.7
	l1.6-1.3l2.1-0.3l1.5-1.4l-0.7-3.2l0.6-1.7l0.7-3.8l2.6-1.7l1.7-1.8l2.1-0.2l3.8,0.4l0.9-0.2l3.5-1.6l2.9-0.3l1.8,1.2l4.2,2l4.2,1.1
	l3.6,0.8l2.6,2.7l-0.7,1l-3.2,2.9v0.7L693.7,140.3L693.7,140.3z"/>
<path id="GB" class="st14" d="M389.1,403.1l-1.6,1.3l-1.3,0.2l-2.5-1.2v-0.5l2.5-1.1l2,0.6L389.1,403.1z M352.6,363.4l1.3,0.9
	l-3.4,1.9l-1.2-0.6l-0.9-1.2l-0.1-1.9l1.2-0.5h1.8L352.6,363.4L352.6,363.4z M329.3,352l-2.1,0.4h-2.9l0.1-1.5l-1.4-0.5l-1.8-2.7
	l-1.3-0.5l-1.9,1.6l0.5,0.9l-2.4,1.8l-2.9-0.3l-0.8-0.7l-2.1-0.4l-0.2-1l-2.7-2l1-1.4l2.9-0.9l-1-1.4l0.2-0.8l1.6,0.1l2.2-0.8
	l1.2-1.6l1-2.3l1.9-0.9l1.3,0.6l1.9-2l2.8-0.1l2.7-0.7l3.9,0.3l1.1,1.1l0.5,1.7l1.3,1.7l1.7,1.4v0.9l-2,1.1l3.5,0.3l1.2,2.5
	l-2.1,0.3l-0.1,1.4l1.1,0.2l-0.6,1.4l-2.6,0.6l-1.4,2.2l-1,0.5L329.3,352L329.3,352z M343,331.8l-2.6-0.5l-0.6-2l0.9-1.4l1.8,0.7
	l0.6,1.3L343,331.8L343,331.8z M331.5,324.7l0.7,3.4l-2.4,1.3L329,327l-1.4,1l0.2-1.9l1.5-0.3L331.5,324.7L331.5,324.7z
	 M333.2,326.4l-1.1-1.2l1.6-2.2l1.7-1l-0.1,1.6L333.2,326.4L333.2,326.4z M335.7,318.6l-4.6,0.8l0.6-3l-1.9-0.9l0.3-0.9l2.1-0.5
	l1.7,1.7l2.1,0.6L335.7,318.6L335.7,318.6z M319.5,307.2L318,307l-0.4-1.4l0.2-2.3l1.6,0.2L319.5,307.2L319.5,307.2z M332.3,301.5
	l-0.1,2.8l2.9,0.8l2-0.1l0.4,0.6l-3.3,2.7l-0.7-0.1l-0.2-2.2l-1.4,0.3L330,306l-1.2-1.9l-2.7-0.5l-0.9-1.1l1.4-0.6l0.3-1.2l2.8-0.6
	l1.5-0.7l0.9,1L332.3,301.5L332.3,301.5z M320.4,298.9l1.2,0.9l-1.1,1.3H319l-2.2-1l0.2-0.5L320.4,298.9L320.4,298.9z M332.2,289
	l-1.6,2.6l-1,0.7l-0.2,1.7l-3,1.6l-3.2,2.4l-1.4-1l2.6-1.7l-2.1-1l-0.2-2.6l0.8-0.7l1.4,0.7l1.9-0.3l-0.7-1.2l6.3-3.2L332.2,289
	L332.2,289z M367,286.8v1.2l-1.3,1.6l-2.2,1.2l-4.2,2.8l-2.5,1.3l-0.5,1.6l1.4,0.1l0.2,0.8l-2.2,1.6l-0.6,1.5l3-0.4l5.3-1.5l3.6,0.5
	l2.6-0.3l6.9,0.2l1.9-0.3l2.3,1.3l1,1.7l-2.8,3.4l-0.8,2.3l-2,3.5l-1.9,2l-2,2.5l-2.1,1.1L367,317l4.5,1.9l-1.4,1.8l-2.4,0.1
	l-2.3,1.7l-2.1,0.7l3.6,1.1l2.4-1l2.7-0.1l5.2,1.9l3.6,3.4l2,1.5l0.5,1.1l2.1,6.9l1.5,3.8l1.6,1.8l4.5,1.6l1.1,0.6l3.4,3.3l3.4,2.4
	l-1.4,1.5l0.4,1.2l2.1,2.9l0.3,1.6l-1.3-0.1l-2.3-1.4l-0.3,0.7l5,3.3l1.6,2l1,2.7l-0.6,1.1l-3,2.7l2.8,1.4l1.2-0.2l2-2.1l1.7-0.2
	l4.2,0.3l3.8,1l3.3,2.1l0.7,1.1l0.4,3.1l-2.2,5.8l-2.8,1.9l-0.5,1.7l-2.1,0.9l-1.7-0.3l-2.4,1.2l1.7,0.6v1.7l-1.1,0.6l-2.5,0.2
	l1.1,2l2.5,0.4l4.3-0.2l1.9,0.2l-0.2,2.7l-0.4,0.4l-3.8,1.7l-1,1.8l-2.2-0.1l-1.1,0.7l-5.7,1.9l-4.9-0.8l-2.9,0.1l-4,0.6l-4.2-1.2
	l-1.8-0.2l-2.8,1.7l-4.2,0.5l-2-0.2l0.9,1.5l-0.9,0.4l-3.8-0.5l-1,0.5l-1.4-0.2l-2.7-1.4l-2.6-0.1l-4.9,1.2l-1,1.3l-1.3,3.5
	l-1.1,1.2l-1.4,0.2l-4.5-2.5l-1.5,0.5l-2.5,0.3l-2.7,0.7l-3.9,2.4l-0.9,1.5l-1.3,0.2l-1.1-0.9l-1.4-0.3l-2.3,0.8l-0.3-1.3l1-1
	l2.8-0.7l2.5-1.9l2.2-2.3l4.6-3.8l0.8-3.1l2.7-0.7l1.4-2.5l4.1-0.6h2.8l2.8,0.5l2.9-0.1l1.1-0.7l1.9-2.4l3.6-3l-4.7,1l-3.8,2.3
	l-3.2-0.4l-2.3-1.9l-2.1-0.8l-2.1,0.4l-0.7-0.9l-2.4-1.7h-2.6l-3.6,1.7l-2.6-1.2l-0.9-2.3l0.3-1.4l1.1-0.7l2.5-0.6l3.8-1.7l2.2-0.7
	l2.8-1.9l1.2-2.3l-0.3-2l0.5-1.4l-0.9-1.7l0.3-1.5l-3,0.3l-2.7,1.2l-0.7-1.1l2.8-1.8l1-1.4l2.6-1.7l3.6-1.3l1.9,0.1l3.7-0.7l2.7,1.3
	l-0.8-2.1l1.2-0.4l0.1-2.4l1.6-2.2l-1.2-0.6l0.1-2l1.5-0.8l0.7-2.6l-1.7-0.5l-2.1,0.6l-1.7-1.5l-2.8-3.6l-0.3-1.4l1.6-3.1l2.3-2
	l-1.9-0.8l-1.4,0.2l-2.7,1.2l-2,1.3h-2.1l-0.8-0.9l-1.1,0.1l-2.5,1.1l-3.5-1.3l-1.1,2.3l-2.6-2.5l-0.3-1.9h1.3l1.2-2.4l2.9-4
	l0.6-1.2l-0.5-1.4l-1.9-1.5l0.3-2.6l0.8-1l1.5-0.4l-1.9-1.2l-2.9,0.9l-1.8,0.9l0.3-2l-0.6-0.4l-1.5,1.4l0.1,3.3l-2.1,5.7l-1.1,0.9
	l-1.4-0.5l1.1-3.9l1.4-2.5l-0.6-0.3l0.3-3.6l1-2.9l1.7-3.8l2.2-3.5l-4.1,2.7l-1,0.5l-2.4-0.4l-0.8-0.7l-1-2.3l1.8-0.2l1.7-1.1
	l-1.5-0.7l1.5-0.9l1.7-2.1l0.4-1.9l-1-1.5l-1.6-0.6l-0.2-0.9l1.7-1.9l-0.7-1.5l1.6-3.1l3,0.1l1.9-0.4l-2.3-2l0.7-2.9l3.7-0.3
	l-0.8-1.8l0.3-2l1.6-0.9l1.3,0.2l1,0.9l2.6-0.9l0.6,0.8l2.8-0.6l3.7-0.3l4.5-0.6l2.2-0.4l2.3,0.2L367,286.8L367,286.8z M366.4,282.8
	l-1.3,0.1l-1.3-1.4l1.5-0.3L366.4,282.8L366.4,282.8z M367.7,279.4l2.7,0.6l-0.6,1.4l-1.4-0.7l-2,0.3l-1.9-1l0.4-2.1l1.7-0.1
	l1.2,0.5L367.7,279.4L367.7,279.4z M371.4,277.1l-1,0.3l-0.4-1.2l-1.7-0.6l0.4-0.8L371.4,277.1L371.4,277.1z M387.5,257.6l1.6,1.8
	l1,0.5l-1.3,3.8l-0.2,1.6l-1,1.7l-0.8-0.4l0.9-2.9l-0.5-1.1l-1.7,0.3l-0.4-0.9l1.6-1.4l-0.8-2l-1.1-0.2l1.5-1.6L387.5,257.6
	L387.5,257.6z M390.4,258l-1.4-1.3l1.3-0.6L390.4,258z"/>
<path id="GE" class="st15" d="M972.9,547.7l-2.3,0.5l0.5,0.7l-3.5,0.1l-1.1,0.2l-3.2-0.3l-5.3,1.3l-4.4,0.3l-1.3-1.2l-1.9-0.2
	l-1.1-1.7l-3.5-2.5l-1.2-0.4l-0.6-1.1l-1.4-0.3l-1.4,0.4l-0.9,1.9l-3.4-0.8l-3.6-0.1l-1.1,1l-4.3-1.3l1.9-3l0.4-1.7l-0.4-2.4
	l-1.7-2.7l-3.7-8l-1.1-1.2l-4-1.4l-1.1-1.6l-3.2-2.1l-4.1-0.9l-4.8-2.9l-2.9-1.7l0.9-2.1l0.8-0.2l4.8,0.9l1.5-0.4l5.9,2.5l3.6,0.7
	l3.1,1.7l6,0.5l2.8-0.6h1.8l2,1.1l2.4-0.2l3.2,1.2l1.5,1.6l3.5,1.4l2.8,0.8l3.2,1.5l0.2,2.4l2.5,0.4l4.3-2.1l2.1-0.7l1.8,0.2
	l1.9,1.9l0.8-2.2l4.6,1.7l2.1,1.8l2.8-0.1l2.2,1l-0.2,4.2l2.9,1.4l1.6,1.2l3.4,0.7l3.1,1.5l-1.2,2.1l-1.2,0.3v1.3l1.1,0.8l0.9,1.5
	l4.5,2.6l0.9,0.8l-0.2,2l-1.8,1.4l-4.1-2l-1.7,0.5l-3.2-0.9l-1.4-1l0.1-0.7l-4-1.4l-1.9-0.4L972.9,547.7L972.9,547.7z"/>
<path id="GR" class="st16" d="M712.9,637.7h2.3l1.7-1l2.2,3.7l1.7-0.1l3.5-0.9l3.7,0.2l1.4,1l2.6,0.2l2.3,0.5l3.3-0.7l0.4,0.4
	l0.1,2.8l1.2,0.2l0.7-0.7l1.7-0.6h1.8l1.6-0.8l-0.4,3.5l-0.9,0.4l-4.4-0.1l-8.1,1l-5.3,0.4l-0.7-0.2l-0.7-2.2l-3.3-1.1l-6.2-1
	l-1.5-0.4l-3.1,0.2l-1.1-1l-0.4-1.8l0.2-1.9l1.4,0.3l0.4-1.4L712.9,637.7L712.9,637.7z M756.3,638.8l-1.6-2.1l1.1-0.5l1.2,2.4
	L756.3,638.8L756.3,638.8z M701.6,627.4l-1.4,0.2l-0.7-2.2l0.5-1l2.1,2.1L701.6,627.4L701.6,627.4z M764.3,631.5l-1.7-0.4l0.4-1.8
	l-0.7-1.6l2.3-2.7l3.2-1.3l0.9,0.9l-0.9,2.5l-0.9,1.3l0.4,1l-1.6,0.2L764.3,631.5L764.3,631.5z M745.3,621.2l-1.5,1.2l-0.9-0.6
	l1.9-1.2L745.3,621.2z M751.5,619v-0.7l1.3-1.1l2.5-1l1.2,0.6l-2.5,1.4l-1.5,0.1L751.5,619z M729.3,613.6l-0.9,1.3l-1.3-0.7l0.4-1.2
	l1.1-0.6L729.3,613.6z M732.9,615.2l-1.1,0.6l-1.4-2.2l1.9-2l0.9,0.7l0.1,1.8L732.9,615.2L732.9,615.2z M738.3,606.4l0.6-1.6
	l1.6-0.1v1.1L738.3,606.4L738.3,606.4z M716.6,605.7l-1-0.4l0.4-1.2l1.1,0.5L716.6,605.7L716.6,605.7z M748.2,602l2.8,0.7l-0.7,1
	l-1.6,0.9l-1.7-0.9l-1.2-1.2L748.2,602z M671.5,602.1l0.4,1.2l-1.1,1l-1.6-1.2l-1.2-1.8l0.9-1.1l0.9,1.2L671.5,602.1L671.5,602.1z
	 M724.6,602.8l-1.4-0.1l-2.4-2.1l0.9-1.4l0.9,1.2l1.3,0.1L724.6,602.8z M667.3,593.1l0.3,1.8l0.9,0.3l1.3,1.6l-0.2,1.2l-2.1-0.8
	l-1,0.2l-1.1-2l-1.3,0.2l0.6-1.8l1.4,0.1L667.3,593.1L667.3,593.1z M738.1,595.6l-1.1,0.9l-1.8-1.7l1.4-1.3l-2.1-2.4l-0.1-1l2.1-0.5
	l1.3,0.9l0.6,1.2l0.4,2.6L738.1,595.6L738.1,595.6z M667.9,589.5l-1.3,0.1l-0.4-0.9l0.8-2.4l1.1,0.3l0.2,2.5L667.9,589.5
	L667.9,589.5z M702.5,584.1l0.9,1.7l5.5,2.5l2.8,0.3l1.7,2.6l-0.2,0.6l1.5,3.8l1.1,0.9l2.7,0.3l0.4,1.9l-0.9,0.8l-1.9-0.7l-2.1-1.6
	l-0.4-1.3l-2.2-2.9l-3.6-0.2l-1.5-0.7l-0.6-1.7l-1.5-0.9l-2-1.9l-1.5-1.1l-3-1.1l-0.6-0.7l1.9-1.3l2.1-0.5L702.5,584.1L702.5,584.1z
	 M740.4,578.3l-0.1,0.9l1.9,1.5l0.7,1l-1.2,2.1l-4-0.8l-0.8-0.8l1.6-1.3l-0.9-0.5l-1.2,1.5l-2.2-0.7l-0.9-0.9l0.7-1.4l1.5,0.1
	l1.7-0.8v-0.6l2.3-0.2L740.4,578.3z M659.1,576.7l-1.3,0.3l-1.2-0.8l-1.2-1.9l-2.2-2.2l0.7-1.1l1.6-0.4l1.4,1.2l-1.1,1.2l0.8,0.7
	l0.9,2.4L659.1,576.7z M726.9,568.1l-0.7,1.4l-0.1,1.3l-3.8-0.7l-0.3-2.3l2.2-0.1l0.8,0.8l1-0.9L726.9,568.1L726.9,568.1z
	 M729.3,561.2l-1.4,0.4l-1.7-1.3l1.4-0.5L729.3,561.2L729.3,561.2z M717.4,558.2l-1.6,0.6l-1.8-1.1l1.1-2.3l1.3,0.1l1,1.3V558.2z
	 M733.3,556.5l-0.5-0.7l-2.1-1.2l-4.6-0.6l-2.3-0.9l-0.9,0.2l-2-1l-1.2,0.4l-2.5,1.7l-1.5-0.2l-1.6-1l-2.2,0.4l-1.7,1.9l-1.8,1
	l-1.8-0.4h-2.3l-0.2,1.1l2,2.1l-0.5,1l0.5,1l2.1,0.1l2.5,1.3l-0.7,0.7l-3.2-1.2l-1.2-0.1l-1.2,1.2l3.5,2.7l0.5,1.4l-0.6,0.9
	l-1.5-0.8l-2.5-3.2l-3.1-0.6l-0.4,0.6l1.2,2.4l2.9,1.7l-0.6,0.6l-3-1l-1.1-1.6l-0.4-2l-5.5-2.8l-1.4-2.8l-2.2,1.3l0.4,2l-0.6,3.8
	l0.4,1.3l3.5,3.7l1.3,2.7l2.6,2.1l2.6,3.2l0.7,1.8l-1.3,1.1l-1.3-0.5l0.3-1.9l-2.2-1.2l-1.9,1.2l1.5,2.3l0.5,1.2l-0.4,1.3l-1.6,0.8
	l-2.6,0.1l2.4,1.4l3.3,1l1.6,1.1l1.5,0.1l1.7,2.1l2.6,0.6l1.7,2.1l2,0.5l1.7,0.8l1,2.1l0.3,2.9l0.6,2.1l0.1,1.7l-1.1,0.5l-1.3-1.6
	l-4.2-3.6l-1-0.4l-1,0.7l-2.9,0.5l-1.9,1.3l1.5,1.3l0.1,1.2l0.8,1.5l2,0.4l2,2.4l-3,1l-1.1,0.7l-0.8-0.5l-0.2-1.2l-4.3-2.2l-0.6,0.6
	l0.7,2.4l1.3,1.6l2.2,4.3l1.3,3.7l-0.2,2.1l1,1.5l0.1,1.5l-1.7-1.2l-2.2-2.5l-0.8-1.5l-2.2,0.1l-1.3,3.3l0.2,1.9l-1.6-1.1l-0.2-2.9
	l-2.1-2.8l-0.9-0.4l-1.3-1.9l-1.5,0.6l-0.1,2.9l-0.4,1l-2.2-1.9l-2.3-3.5l-0.2-1.8l1.4-1.7l-0.3-1.2l-1.6-2.5l-2.1-1.5l-1.2-0.5
	l-0.7-1.6l-2-1.3v-1l2-1.7l1-2.6l1.9,0.5l1.4-0.2l2-2.4l1.6,0.1l3.9,2.1l4.2,1.2l2.1,1l1.2,1.1l1.6,0.3l-0.5-1.4l0.8-0.4h2.1
	l0.2-1.6l-2-0.6l-0.8,0.2l-2.4-1.4l-2.3-0.8l-2.2-1.5l-1.2,1.3h-1.2l-3.4-0.9l-2.1,0.7l-4.2,0.7l-1.1-1.3l-2.6,1l-1-0.7l-1.9-4.2
	l-1.7-1.9l-1.2-0.5l-0.2-1.9l1.5-0.2l2.4,0.9l0.9-0.6l-0.6-1.6l-2.5-0.2l-1.8,0.5l-2.8-2.2l-1.5-1.7l-2.2-1.1l-1.7-3.4l-2.6-2.6
	l2.7,0.9l0.7-0.7l0.3-1.5l0.9-0.7l-1-2.2l1.7-1.3l1.9-0.3l0.6-0.5l0.3-2l1.2-3.1l1.7-0.8l0.8-2.6l-1.1-1.8v-1.1l4.6-0.3l0.9-0.6
	l2.3,0.6l2.4-1.3l1.7-2.5l0.8-0.3l3-0.4l3.3,0.6l2.9-1l0.2-2.1l2-0.3l3,0.2l1-1l2.4-0.2l2.6,0.2l3-1.1l1.9-0.2l0.2-0.9l4.2,0.1
	l1.6-0.5l1.2,1.7l2.4,1.4l0.9-0.6l3.7,1.2l1.7,1.1l3.4-0.9l3.2-0.4l1.8,0.3l2.5-1.2l0.2-0.8l-0.9-2.7l-0.7-1l1.6-1.1l1.6,0.5
	l1.2,0.3l2.3,1.5l0.9,3.1l-3.4,2.5l0.5,4.4l-2.5,3.2L733.3,556.5L733.3,556.5z"/>
<path id="HR" class="st17" d="M611.2,521.2l2.3,0.4l-1.1,0.9L611.2,521.2L611.2,521.2z M624.1,522.7l1.6-0.1l0.6,0.9l6.2,3.8
	l1.7,0.7l1.2,1.9l-4.8-3.1l-4.4-2.5l-3.1-0.7l-4.3-2l-0.5-0.9L624.1,522.7L624.1,522.7z M617.8,519.2l-0.8,0.1l-5.6-0.1l-1.7-0.3
	l-0.5-1.3l1.8,0.2l0.5,0.6L617.8,519.2z M612.5,516.9l-2,0.1l-2.6-0.8l0.3-1.1l4.8,0.6L612.5,516.9z M591.3,500.4l-0.3,0.4l-3.3-2.7
	l-0.3-1.9l2.8,2.7L591.3,500.4z M586.4,493.9l-1.9-0.2l0.8-1.1L586.4,493.9L586.4,493.9z M582.2,495.4l-0.9-0.1l-1.7-4.2l0.4-1.2
	l-0.8-2l0.9-0.3l0.5,2.1l1,0.9l-0.1,1.6L582.2,495.4L582.2,495.4z M585.9,490.5l-1.5,0.3l-1-1l-1.3-0.2l-1-1l1-0.7l0.5-1.2
	L585.9,490.5L585.9,490.5z M635.4,475.8l-0.7,1.5l1.6,2.7l0.2,1.6l1.3,0.4l-0.4,2l1.2,1l3,1l0.9,1.5l-2.3,0.1l-1.7,0.4l0.7,2.6
	l-1,1.6L636,492l-1.3-2.2l-1.1-0.8l-2.2-0.2l-2.6-0.7l-1.8,0.2l-1.8-0.3l-2.2,1l-1.6-1.3l-1.7,0.6l-2.8-0.7l-2.5-0.1l-2.7-1.6
	l-1.5,1.2l-3.2-0.3l-2.7,3.2l-1.8-1l-1.7-1.8l-1.8-0.4l-1.2,0.6l-0.3,5l0.1,1.4l1.9,1.3l3.4,3.2l1.3,4l2.3,2.4l2.8,2.3l1.7,2l5,4.1
	l2.4,1.1l0.4,2.2l1.5,1.6l3,2.5l-0.3,1.6l-3.5-2.8l-2.6-1.5l-3.1-2.8l-3.8-1.1l-2.7-1.2l-3.3,0.6l-1.8-0.2l-0.7-2.2l-5.8-3.9l-4.3-4
	l-0.8-1.3l3.1-1.2l-1.4-0.8l-3.9-3.4l-1.2-1.6l-0.1-4.1l-0.8-1.7l-2.9-2.2l-1.1-1.1l-2.1-0.7l-1.4,0.9l-0.3,1.9l-3,5h-1.3l-3.1-4.2
	l-0.5-1.9l-1.3-3.9l0.7-0.5l0.5,0.6l3.3,0.8l1.4-1.3l1.1,0.5l3.6-0.1l0.6-0.3l1.2-2.2l2.6,2.1l1.5,0.7l1.3-0.5l2,0.7l1.6,0.2
	l1.2-0.4l-0.8-2.3l0.7-0.7l-1-1.1l2.1-1l2.1-0.6l0.4-1.1l-0.2-2.2l-0.9-0.9l0.4-1.4l4.4-1.7l0.7-1h2v-1.7l0.9-0.8l2.5,0.6l2.9,1.2
	l1.7,1.2l0.9,1.3l2.7,1.8l2.2,2.2l1.3,0.7l2.5,0.6l1.3,1.3l3.3,0.9l4.9,0.2l2.5-0.9l1.1-1.4L635.4,475.8L635.4,475.8z"/>
<path id="HU" class="st18" d="M671,437.8h1.5l1.4,2.3l2.2,0.8l0.9,1.1l2.3,0.4l0.9,0.7l0.7,1.7l-2.2,2.3l-4.6,1.1l-1.9,2.4l-1.2,1
	l0.1,1.7l-1.4,1.4l-0.7,2.5l-1.4,1.5v1.2l-1.6,2.7l0.2,1.3l-2.1,1.5l-1.5,4.7l-1.3,0.9l-2.6-0.3l-2.5,2l-1.4-0.5l-3.2,0.9l-1-0.5
	l-2.8-0.3l-1.1,0.2l-2.9-0.4l-1,0.3l-1.5,1.6l-2.2,1l-1.6-0.5l-2.1,1.3l-2.9,0.4l-1.1,1.4l-2.5,0.9l-4.9-0.2l-3.3-0.9l-1.3-1.3
	l-2.5-0.6l-1.3-0.7l-2.2-2.2l-2.7-1.8l-0.9-1.3l-1.7-1.2l-2.9-1.2l-1.9-2.2l-1.4-3.3l-2.4-0.1l1.8-1.7l2.5-0.5l0.3-1.8l-1.1-1.6
	l0.5-0.7l-0.4-1.5l2.2-1.2l0.5-1.4l-0.5-1.1l-2.6-0.7l1.3-1.4l2.5,0.9l3.9-0.3l-0.7-2l0.6-1.9l0.6-0.7l2.1,0.3l4.2,2.7l1.6,0.7
	l4.7,0.1l7-0.4l0.6-1l-0.5-1.3l0.4-1l1.4-0.7l4.3-0.4l2.4-0.6l1-1.5l0.7-0.2l3.5,1.4l5-2.5l1.6-3.5l1.8-0.4l2.7,0.1l2.5,0.6l4.6-0.7
	l1.4,0.9l2.2,2.2l0.6,0.2L671,437.8L671,437.8z"/>
<path id="IE" class="st19" d="M329.3,352l0.7,1.1l-2.2,0.4l1.5,5.2l0.6,0.9v4.1l0.9,3.2l0.1,2.5l-1.3,1.8l-0.9,2.1l-0.2,1.8
	l-1.6,2.1l-1.5,0.9l1.6,1.5l-2.8,0.8l-2.6-0.3l-1.3,0.8l-3.9,0.2l-3.7,0.7l-1.7,1.8l-2.5,0.7l-1,1l-2.3,0.8l-1.7-1.2l-1,0.2l0.2,2.1
	l-2.9,1.3l-1.8,0.3l-1,0.7l-5.8,1.4l-1.9-0.5l-3.3,0.8l-1.2-0.1l1.6-1.8l1.6-1.3l-3.8,0.6l-1.4,0.5l-0.6-0.6l3.2-1.9l-3.3,0.1
	l-3-0.4l-0.4-1l2.9-2.3l2.4-0.9l-0.1-0.9l-5.1,0.1l0.5-1.1l1.7-1l1.8-0.1l1.5,0.6l1.1-0.8l-0.6-1.7l3.9-2.3l3-0.3l3.3-0.7l3.3-0.8
	l-2.4-1.2l-2.3,1.8L291,374l-1.9-0.5H287l2.7-2l1.6-1.7l-0.8-0.7l2-2.3l3.6-1l-1.6-1.3l-3.9,0.2l-1.4-1.3l-2.6,0.1l0.4-1.2l-3.5-0.2
	l0.5-1l-0.6-1.1l2.8-0.6l-0.2-2l1.9-0.8l2-0.4l0.1-1.1l-2-0.2l-2,0.4l0.8-2.1l-0.8-1l-0.4-1.7l-0.9-1l2.8-0.2l1.2-0.5l4.7,0.1
	l1.9,1.3l1.7-1.2l4.8,0.9l0.6-2.6l3.8-1.5l1.2-2l-3.7,0.4l-3.6-1l0.7-0.8l2.1-0.7l1.9-1.6l-0.3-1.1l1.7-2.7l3.1-0.8h2.4l1.6-0.9
	l1.2,2l-1,1l0.6,0.9l1.2-0.8l-0.5-2.1l0.9-1.3l1.9-0.3l0.6-0.8l3.2,1.7l-2.5,1.5l-0.5,0.7l-1.9,0.9l-1,2.3l-1.2,1.6l-2.2,0.8
	l-1.6-0.1l-0.2,0.8l1,1.4l-2.9,0.9l-1,1.4l2.7,2l0.2,1l2.1,0.4l0.8,0.7l2.9,0.3l2.4-1.8l-0.5-0.9l1.9-1.6l1.3,0.5l1.8,2.7l1.4,0.5
	l-0.1,1.5h2.9L329.3,352L329.3,352z"/>
<path id="IS" class="st20" d="M240.3,177.9l1.2,0.1l2.8-0.8l2.2-1.1l0.5,1.1l-2.5,2.4l2.2,0.9l2,0.3l-0.1,1.7l-1.7,1.6l0.8,0.3
	l3.5-0.5l1,2.3l1.5-0.2l2.4,0.3l1.4,1.2l1.2-0.3l0.5,0.9l-0.7,1.2l-1.5,0.6l2.1,2.9v1.1l-1,0.7h-1.3l-1,2.1l-1.2,1.1l-2,1l-2.6-0.5
	l-1.1,1.5l0.2,1.4l-1.3,1.3l-5.3,2.1H240l-2.6,0.5l-6.2,2l-4.7,2.8l-2,0.7l-3.1,0.3l-1.8,0.5l-5.9,0.8l-2,0.5l-1.2,1.1l-0.5,1.4
	l-4,1.1l-3.8,0.7l-6.4-0.5l-5.4-1.3l-4.5-0.3l-3.8-2.5l-2.9-1l-3.6-1.8l-2.3,1.1l-12.4,0.3l-0.8-0.5l-0.2-2.1l1.1-0.8l1.3,1.2l5-1.1
	l2.7-1.9l2.5-2.7l-3.5,1.2l-0.2-1.9l-0.9-1.1l-1.7-0.8l-0.3-0.8l1.1-0.9l-2.3-1.2l-2.6,0.1l-6.6-0.5l-3.8,1l-2,0.1l-0.9-1v-1.1
	l1.5-0.3l1.8,0.1l4.1-0.6l1.4-0.6l0.8,0.5l3.6-1.1l1,0.2l4-0.2l4.4-0.1l1.1-0.8l0.4-1.1l-2.8,0.9l-3.7-0.5l-0.6-0.9l3.6-1.6l2.7-0.8
	l-0.8-1.3l-3.2,0.2l-0.7-0.8l-2.6-0.4l-1.8,0.3l-0.9-0.5l-2.4,0.6l-5.2,0.9l-3.3,0.9l-3.1-1.1l-2.4-0.2l1.4-1.4l2-0.1l1.7,0.8
	l0.1-3.2l1.2,0.3l2.8,1.1l-0.7-2.8l2.2,0.1l-2.2-1.6l0.5-1l1.6-0.3l0.8-1h2.4l2.3,1.1l0.2,1.4h2.1l1.1-0.8l0.9,0.6l0.5,1.2h1.2
	l0.4-2.2l-3.6-1.1l-0.3-1.4l3.7-0.1l-1.7-1.1l-3,0.2l-1.4-0.4l2.6-1.2h3.4l1.4,0.2l2.3,1.7l2,0.6l3.1,2.3l2.2,0.9v1.2l0.7,0.8
	l-2.3,3.4l0.9,0.7l-0.8,1.6l1.9,0.6l1,1.7l0.9-1.8l1.5-1.9l2.3-1.3l0.9,0.1l0.9,1l0.9,0.1l1.4-2l0.7-4.3l1.7-0.9l1.8,0.7l1.3,1.6
	l2.6,2.1l1.8-0.5l0.1-2.3l1-1.3l2-0.3l2.2-0.8l2.3-0.2l1.7,1.4l1.2,1.4l1.7,1.1l0.7,1.8l0.9-0.3l-0.2-1.7l-1.4-2.6l0.3-0.9l4.1,0.2
	l3,2.3l1.3-0.3l3.6-2.8l2.3,0.8l1.8,0.1l2.8-0.8l0.8-1.2l-0.9-2.3l0.6-0.4l2.6-0.6l2.7,0.1l2.6,2.1l-0.1,1L240.3,177.9L240.3,177.9z
	"/>
<path id="IT" class="st21" d="M602.6,595.6l-1.2,2.5l-2.8,4.3l-1.5,5.1l0.3,2l1.6,1.4l-0.7,0.5l1.6,1.8l0.1,1.3l-1.8,1.9l-0.4,1.7
	l0.1,1.5L595,619l-1.4,0.3l-3.7-1.4l-1.9-2.8l-3-2h-3l-1.4-0.5l-2.9-1.9l-3-1.4l-2.6-2.1l-1.7-0.4l-1.5-1H566l-2.3-1.6l-1.3-2.3
	l1.3-3.7l1.4-0.8l0.9-1.2l2.3,2.3l1.8-0.8l1.4-1.6l2.4,0.1l0.5,0.9l1.4,0.3l2.5,1.6l1.4,0.4l3.4-1l3,0.4l2.8-0.5l1.7-0.6l1.2-1
	l1.4-0.3l3.5,0.3l2-1.2l0.8,0.2l2-1.2L602.6,595.6L602.6,595.6z M524.3,554.1l0.7,0.9l1.8,5l-0.6,1.6l-1.3,2l0.8,2.8l-0.6,11.5
	l-0.6,2.9l-0.9,0.4l-2.9-1.2l-1.5,0.3l-1.2-0.6l-0.3,3l-1.8,2.1l-3-0.2l-0.7-0.6l-2.4-3.8l-0.4-4.3l0.6-1.3v-2.5l1.1-0.1v-1.7
	l-1.8-1.2v-1.9l0.7-1.4l-0.1-2.6l-0.8-0.9l-0.8-2.3l-2.2-2.4l0.1-3.4l3.4,0.6l1.3-0.3l3.1-1.5l2.1-2.5l1.4-0.5l1.5-1.8l0.7,0.9
	l2.2,0.8l1.2,1.5l0.9,0.5l-0.7,1.4L524.3,554.1L524.3,554.1z M532.6,523.3l0.3,1.4l-2.5,0.5l-1.1-1.1l2.9-0.2L532.6,523.3
	L532.6,523.3z M570.5,466.7l-0.2,0.9l-3.3,2.3l0.7,1.4l2.3,0.7l-1.6,2.1l0.3,1l1.3,0.2l-0.4,2l1.9,1.1l1.5,1.3l0.2,1.3l-1.5,0.1
	l0.7-0.6l-2-2.2l-2,0.9l-3.2-0.9l-2.1,2l-1.5,0.4l-1.7,1.1l-3.2,1.2l-1.8-0.4l-1,0.7l-0.4,3.1l0.8,0.6l1.5,2.6l1.7,1.1l-0.7,1.9
	l-0.9,0.7l-1.3-0.5l-0.3,1.7l0.9,4.5l1.4,3.2l1.2,1.3l2.7,2.2l2.7,1.1l5.1,3.7l2.8,1.1l0.7,0.7l1.8,2.8l1.6,3.2l1.8,5.1l1.3,2.5
	l2.3,2.9l4.8,4.1l4.3,2.9l4,1.9l3,0.3l7-0.4l2.6,0.7l0.4,1.2l-0.4,0.9l-2.9,2.1v1.7l1.5,1.2l7.1,3.2l7.2,2.6l2.2,1.4l2.7,2.1
	l6.4,2.9l1.1,1.4l4,3l1.8,2.4l0.5,1.8l-1.5,4.4l-1.6-0.5l-1.9-1.3l-3.1-5.4l-5-0.5l-2.9-1.3l-0.7-1.4l-2.3-0.4l-1.3,0.9l-1.4,2
	l-1.5,3l-1.5,4.3v1.7l1.1,1.7l2.9,1l2.4,1.5l1.6,1.6l0.3,3.8l0.9,2.1l-0.9,1.3l-1.9-0.3l-2.5,0.7l-1.7,1.4l-0.7,1.4l0.5,3.4
	l-0.3,1.4l-3.3,2.5l-1.6,2.5l-1,2.3h-4.3l-1.1-1.5l-0.1-2.2l0.6-1.3l1.6-0.7l0.9-2.8l-0.5-2l1.1-1.6l2.8-0.7v-2.9l-1.4-1.3l-1.4-5.1
	l-2.4-4.3l-1.4-3.8l-1.1-1.8l-1.4-1l-3.7-0.3l-4.6-2.6l-0.3-1.1l0.6-1.1l-1.1-2.8l-2-1.7l-2.6,0.6l-1.2-0.1l-0.1-1.5l-2-1.3
	l-2.7-0.2l-0.7-0.7l-2.6-4l-1.7-1.7l-2.3,0.1l-3.9-0.9l-2,0.7l-3.2-2.6l-2.8-0.9l-5.7-5.3l-1.8-2l-3.5-2.2l-2.3-3.2l-1.8-1.2l-4-1.4
	l-0.3-1.3l-3.1-3.1l-1.7-1l-1.3-2.1l-2.5-0.5l0.1-2.7l-1.2-3.5l-1.7-2.2l-1.2-5.3l-0.8-1.5l-1.8-1.1l-4-1.2l-5.7-3.4l-1.1-0.1
	l-3.4-1.3l-2.1-0.2l-2.6,1.2l-3.1,3.2l-2.5,3.4l-0.9,0.6l-3.4,1.2l-3,0.5l-0.2-1.5l2.1-2.6l-0.3-2l-3.3,0.6l-5.1-2.4l-0.9-0.9
	l-0.1-1.4l-0.7-1.3l1.4-2.5l0.8-0.7l-0.5-1.7l-3.2-1.4l-1.5-3.1l0.8-0.4l1.9,0.2l1.7-1.3l1.2-0.3l0.8-2.5l-1.8-1.6l-1.7-2.6
	l-0.9-0.6l-0.1-1.6l2.6-1.7l1.4,0.7l2.4-0.5l2.6-1l3.1,0.8l2.4-1.4l1.6-2.2l-0.6-1.5l3.4-2.9l1,0.6l0.2,2.5l2.4,2l2.2,0.6l-0.4,1.2
	l1.3,1.2l0.9,1.4l1.2-0.7L513,475l0.2-1l2.2-2.6l0.5-1.1v-2.9l2-0.1l0.8,2.1l2,0.8l2.9-1.1l0.7,0.1l1.4,1.9l1.2-0.3l-1.5-3.5
	l0.6-1.8l1.3-0.3l1,0.9l1.9,0.2l-0.5-1.8l0.5-3.1l3,0.3l0.9,0.8l2.1,0.4l1.1-0.4l1.2-2.2l1.4-0.6l3.4-0.3l3.1,0.2l4.7-1.5v2.3
	l3.1,3.5l1.1,0.5l8.6,1.5l4,0.3L570.5,466.7L570.5,466.7z"/>
<path id="LI" class="st1" d="M519.4,458.5l-1.2-0.1l-0.1-1.7l0.5-1.5l1.1,2.5L519.4,458.5L519.4,458.5z"/>
<path id="LT" class="st22" d="M707.9,328.5v1.8l-0.7,3.1l3.9,1l-1.3,1l-0.4,1.1l-3.6-0.1l-1,2L704,339l-2.6,0.6l-1.1,3l0.4,2.3
	l-1,1.5l-0.5,2l1.9,0.5l0.9,1.1v1l-2,0.2l-1.7-2.3l-1,0.7l-2.1,0.5l-1.4,1.2l-2-0.2l-0.8,2.6l-1.8-0.1l-3.3,1.3l-1.6-0.9l-3.7,0.3
	l-1.6,0.3l-2.9-0.4l-0.8-3l-1.1-0.9l-4.5-2.2l-2.3-0.7l-0.6,0.6l-1.3-2v-2.1l1-3.1l-1.3-1.3l-1.4-0.6l-0.9-1.3l-5.7-0.1l-2.4-0.6
	l-3.9-1.4l-2-1.2l-1.8,0.2l-0.6-1.2l0.2-1.6l-1.1-2.4l-1.6-2.9l-0.7-3.8l2.8-1.7l3.6-1.9l4.7-1.4l5.9,0.5l4.3-0.1l1,0.9l1.6-0.7
	l4.9,0.5l2.3,0.1l3.7,0.9l4.6-0.4l1.7-1.3l2.3-0.2l2.4,2.9l6.1,1l0.9,0.4l5.4,3.1l2.6,2.1l1.5,0.7L707.9,328.5L707.9,328.5z"/>
<path id="LU" class="st23" d="M475.4,411.7l0.3,2.2l1.5,1.6l2.8,1.1v1.4l-0.9,0.9l-0.6,3l-1.3-0.7l-2,0.6h-1.4l-2.1-1.2l1.1-1.7
	l-2-2.4l0.2-1.7l1.4-2.5l1.3-1.3L475.4,411.7z"/>
<path id="LV" class="st24" d="M711.6,301.2l1.9,0.3l0.5,1.1l3.2,1.7l0.7,2.2l-0.8,1.6l-0.3,3.1l1.8-0.3l1,0.6l0.3,1.2l1.7,2.1
	l1.3,0.8l1.9,4.2l-0.3,1.7l-1.3,0.2l-1.4,0.8l-2.5,2.4l-0.4,1.7l-3.1-0.1l-3-0.4l-1.1,0.3l-1.2,1.5l-2.6,0.6l-2.3-0.5l-1.5-0.7
	l-2.6-2.1l-5.4-3.1l-0.9-0.4l-6.1-1l-2.4-2.9l-2.3,0.2l-1.7,1.3l-4.6,0.4l-3.7-0.9l-2.3-0.1l-4.9-0.5l-1.6,0.7l-1-0.9l-4.3,0.1
	l-5.9-0.5l-4.7,1.4l-3.6,1.9l-2.8,1.7l-0.8-2.8l-0.6-5.5l0.1-2.8l1.9-1.6l0.8-1.2l0.6-4.5l2.5-3.6l2.4-0.4l3.1-1l3.5-0.9l1.4,1.9
	l4.9,3l1.2,1l2.3,3.4l4.4,1.8l3.1-0.6l3.6-2.4l1-1.1v-1.1l-1.2-4.7l-1.1-2l0.1-1.3l8.4-2.8l1.5,1l1.1-0.7l5.6,2.5l2.3,0.5l0.6,0.7
	l3.5,2.7l2.8,1.1l4-1.2l3.4,1L711.6,301.2L711.6,301.2z"/>
<path id="MD" class="st25" d="M751.4,483.2l-2-2.3l0.9-0.7l-1.4-5l-0.1-2.6l0.9-4.8l-0.5-2.9l-1.4-2.3l-1.4-2.9l-3-2.1l-1.3-1.7
	l-2.1-1.8l-2.5-3.2l-1.5-1.3l-3-4.9l-2.5-3l-2.5-1.6h-2.1l0.2-0.6l2.3-1.4l0.7,0.2l4,0.1l1.2-1l0.8,0.3l1.6-1l3.5,1l3.6,2.4l2.5,0.3
	l0.6,1.2l5.6,0.6l1.4,1.9l1.4,1l1.4-0.7l1.4,1.4l0.6,2.3l-0.6,3.1l0.6,1.2l2.3,1.2l2.9,2v2.4l0.9,1.9l2,1.3l2.1,0.8l1,1.6l0.2,2.9
	l2.9,1.7l-0.6,0.7l-2.9,0.4l-1.2-1.3l-1.6,0.6l-2.1-0.8l-1.9-0.2l-2.1-1l-2.5,1.6l0.5,2.1l1,1.7l-0.4,2l-2.3,1.7v1.3l-2.5,2.9
	l0.5,1.4l-0.4,1l-2,0.2L751.4,483.2L751.4,483.2z"/>
<path id="MK" class="st26" d="M683.8,531.8l3.3,3.2l3.4,1.8l1.7,3.3l0.9,1l-0.5,1.7v4.2l-2,0.3l-0.2,2.1l-2.9,1l-3.3-0.6l-3,0.4
	l-0.8,0.3l-1.7,2.5l-2.4,1.3l-2.3-0.6l-0.9,0.6l-4.6,0.3l-1.3-1.1l-1.6,0.2l-1.3-2.4l-1.2-1.1l-1.2-2.2l-0.2-1.9l-0.7-2l0.8-0.8
	l-0.3-2.1l0.5-2.6l1.7,0.3l0.5-0.8l0.2-2.6l3.4-1.5l1-0.1l1.6,1.2l1.5-1.9l2.1-0.4l2.2-0.3l2-0.9l1.9,0.3l2.3-0.8L683.8,531.8
	L683.8,531.8z"/>
<path id="ME" class="st27" d="M642.4,512.9l0.4,1.2l2.6,1.7l1.9,2l3,1.6l2.1,0.5l5.3,2.9l0.1,1l-1.6,0.4l-0.2,0.7l-2,0.4l0.9,1.5
	l-0.2,1.3l-3.4,1.2l-0.8-2.1l-1.1-0.3l-3.2,5.3l-0.8,0.3l-2.5-0.2l1.6,1.9l1.7,0.8l0.3,0.6v3.1l-2.1-1.2l-0.9-1.8l-3.1-2.9l-3.5-2
	l0.1-1l-1.6,0.1l-1.2-1.9l1.1-1l0.1-0.8l-1.1-1.6l-0.6-3l0.5-0.7l1.7-0.2l-0.1-1.5l0.5-1.7l2-1.7l2.3-0.2l-1.4-2.2L642.4,512.9
	L642.4,512.9z"/>
<path id="NO" class="st28" d="M458,260.9l0.1,1.7l-1-0.1l-0.7-1.1l-0.2-2l0.7-0.5L458,260.9z M456.2,249.8h-1.8l0.3-1.3l0.9-0.3
	L456.2,249.8z M488.7,217.9l-2.3-0.2l-1-0.8l2.8-0.8l0.7,0.5L488.7,217.9z M492.3,213.3l-0.3-0.9l2.7-0.6l0.9,1L492.3,213.3
	L492.3,213.3z M520.3,196.7l-4.2,0.3l-0.3-1.1l2.1-0.8h1.2L520.3,196.7z M527.1,186.2l-2,0.3l0.1-1.1l1.8-0.3L527.1,186.2
	L527.1,186.2z M531.2,180.5l-0.1-1.1l1-1.2l1,0.4l-0.3,1.5L531.2,180.5L531.2,180.5z M534.3,155.6l-1.5,0.7l1.1-2.6l1.1-0.7l0.4,1.5
	L534.3,155.6z M542.8,150.4l2.3,0.2l-0.5,0.8l-1.4,0.3l-1.1,0.8l-1.9,0.2l-1.9,1l-1.6,0.3l-0.4-1.2l0.9-1h1.3l1-1.2L542.8,150.4
	L542.8,150.4z M555.2,141.4l2.2,2.1l-0.3,1.5l-1.2,0.7l-3.3,0.1l-1.6-0.9l-2.2,0.6l-1.6-1.1l1.6-1.4l2.6,0.4l0.5-1.7l1.7,0.3
	l0.4-1.5L555.2,141.4L555.2,141.4z M561.5,146.4l1.3-1.1l1.5-0.4l0.6-2.2l1.8-0.5l1.6,1l0.9,1.2l-0.2,1.1l-3.1,1.2l-2.5,2l-1.6-0.2
	l-0.7,0.7l-2.4,0.6l-1.7-0.9l-0.9,0.9l-1.4,0.4l-1.2-0.4l-2.9,1.5l-2.8,0.3l-1-1.1l3.1-1.9l5.1-0.6l2.9-2.3l0.4-2.5l0.6-0.9
	l-1.3-0.6l0.2-1.7l2.4-1.7l1.3-1.4l1.5-0.3l0.9,1.1l-1.1,1.4l-1.6,1.2l1.1,1.5l0.6,2.4L561.5,146.4L561.5,146.4z M577,132.7l1.4,0.8
	l1.5-0.3l2.3,0.7l1,1.5l-1.2,0.9l0.4,1.7l-3.8,0.5l-0.9-0.5l-1.5,0.9l-1.4,1.4l-2.2-0.6l0.2-1.6l-0.3-2.3l0.7-0.5l2.9,0.3l-0.4-2
	L577,132.7L577,132.7z M701,130.1l-1.8,0.4l0.2-1.8L701,130.1L701,130.1z M608.6,126.3l-1.3,0.4l-1.8-0.3l-0.7-1l2.2-1l1.7,0.3
	L608.6,126.3L608.6,126.3z M593.5,126.6l1,0.7l1.5-0.5l1.1,1l-1.4,0.8l-0.8,1.2l-2,0.1l-2.9,2.3l-0.1,0.8l-5,0.5l-1.5-0.3l1.7-2.7
	h1.7l1.7-0.8l-0.3-0.8l2.5-2l0.6-1.7l1.4-1C592.7,124.2,593.5,126.6,593.5,126.6z M598.3,124.6l1.4,0.2l1.3,1.6h-2.3l-2-1.8
	C596.7,124.6,598.3,124.6,598.3,124.6z M635.6,120.3l0.5,1.1l-3.3,2.1l-1.6,0.1l-2.1-1.2l0.1-0.8l1.9-0.9l0.9,0.1l2.7-1.4
	L635.6,120.3L635.6,120.3z M639.5,120l-1.8,0.5l-1.7-0.9l-0.2-1.6l0.8-0.3l3.2,1.2C639.8,118.9,639.5,120,639.5,120z M633.1,116.8
	l-0.4,0.8l-2.7,2.1l-2.2,0.7l-1.8-0.3l-0.8,0.6h-2l-2-0.6l-2-1.2l3.5-0.1l0.6-0.5h1.5l2.8-0.4l1.1,0.3l2.1-1.4H633.1L633.1,116.8z
	 M693.7,140.3L692,139v-0.7l3.2-2.9l0.7-1l-2.6-2.7l-3.6-0.8l-4.2-1.1l-4.2-2l-1.8-1.2l-2.9,0.3l-3.5,1.6l-0.9,0.2l-3.8-0.4
	l-2.1,0.2l-1.7,1.8L662,132l-0.7,3.8l-0.6,1.7l0.7,3.2l-1.5,1.4l-2.1,0.3l-1.6,1.3l-0.5,1.7l-1.3,0.6l-2.6-0.8l-3.9-0.8l-3.6-1.1
	l-1.5-0.1l-1.2,1.2l-3.7,0.9l-1.8,0.1l-0.8-0.5l-6.9-0.6l-1.4-1.8l-7.9-5.5h-3.6l-1.9,1.1l1,1.4l-0.5,0.6l-1.9-0.4h-2.1l-0.5,0.4
	l-5.1,0.2l2.6,1.6l0.1,2l-1.4,1.9l-1.6,0.9l2.9,0.9l-2.5,1.6l-1-0.1l-8.6-1.7l-2.9-0.1l-4.1-0.9l-2.1,0.5v0.8l0.8,3.6l-2.1,3.1
	l-6.3-1.8l-1.5,0.9l-3.7,1.9l-1.5,3.5l-1.1,1.1l-2.7,0.6l-0.5,1.1l2.7,2.3l1,1.3l-0.2,1.4l-1.5,1l-3.3,2.9l-3,2.9l-1.3,0.9l1,2.5
	l-3.3,1.5l-2.4,0.5l-3.8,0.4l1.4,3.9l-0.6,2.7l-0.1,4.7l-3.3,5l-4.4,5l4.7,1.6l1.1,2.9l0.1,1.2l-1.7,2.2l-7.1-0.9L540,208l-3.3,1.5
	l-3.5,3.8l-1.2,1l0.5,1.5l-2,2.8l2.7,4.1l-1.1,1.1l0.6,2.8l-0.1,1.8l2.5,4.4v1.6l-0.9,6.4l3.8,2.1l1.2,0.4l3.4,2.7l-0.4,1.9
	l-1.3,2.5h-2.4l-1.8,0.6l0.3,1.6l3.1,4.9l0.5,1.4L540,261l-0.1,2.8l-1.9,2l-1.3,0.8l-2.6,0.7l-0.9,2.4l-1.5,1.5l1.6,4.4l-0.6,3.9
	l-0.7,1.4l-1.9,0.2l-1-1.8l-0.4-1l-6-1.2l-2.3-2.9l-0.4-3.1l-2.5,1.2l0.6,1.1v2.3l-2.5,3.9l-1.1-0.2l-1.3,0.8l-1.3,0.2l-0.6-1
	l-1.1,0.2l-0.8,1l-3.4,1.3l1,0.7l-1.7,1l-0.6,0.9L502,286l-4.3,3.9l-2.3,1.1l-1.6,1.2h-1.4l-1.8,0.9L486,294l-3.1-0.4l-2.1,0.4
	l-1.1-0.7v-1.1l-1.2-0.1l-0.8,1.2l-1.6-0.4l0.7-2.4l-3.1-0.1l-3.8-1.6L469,288l-3.1-1.3l-1.4-1.4l-0.8-1.6l0.3-3.6l0.6-0.5l2.7,0.8
	l2.8,1.3l-0.1-1.2l-2.4-1.6l0.8-1.8l-0.2-1.6l2.6-2.1l-0.4-0.7l-3.4,2l-3.1,0.9l-1.1,1.2l-1.1,0.6h-2.1l-0.5-0.9l0.5-3.3l1.2-2.7
	l1.8-1l3.4,0.7l1-1l1.3-0.2l2.4-1.2l-4.1,0.5l-1.2-1l2.8-2.4l1.2-1.4l0.3-1.5l2.2-1.7l1.8-0.8l1.6,0.6l1.5-1.9l-5,1.1l-2,1.1
	l-2.7,2.8l-0.2,1.1l-2,0.9l-1.5,1.5l-0.6,1.2l-2.8,1.9l-1.4,0.3v-2.4l1.1-2l-0.3-1.6l3.2,0.2l1.8-1.2h-2.7l-1.4-0.7l-1.2-1.5
	l-0.6-1.9l1.1-1.8l-2.2-2l-0.5-2.2l-0.1-2.5l0.9-0.5l2.1,0.4l2.4-0.2l5.2-0.9l3.4,0.6l1.4-0.1l2-0.7l1.9-0.1l2.2,1.2l0.7-0.5
	l5.4-1.2l-3-1.5l0.1,1.4l-3.6,0.3l-3.2-0.6l-1.3-0.6l-0.5,1.3l-1.1,0.3l-3.4-0.5l-4.7,0.3l-2.1,0.7l-1.4-0.1l-2.5-1.2l-0.9-0.9
	l-0.3-2.6l2.8-0.3l-1.9-2.3l-1.9-1.3l-0.2-1.4l0.7-1.3l1.5,0.2l3.8-0.1l6,1.5l4.9-0.3l-0.8-0.6h-2.9l-7.2-1.3l-2.2,0.1l-1.2-0.3
	l-0.7-1l0.4-1.9l1.1-0.4l1.2,0.6l1.9-2.3l1.9-1l2-0.5l2,1l1.3-0.1l4-0.8l-1.3-0.5l-3.5,0.5l-0.2-0.5l2.4-2.3l4.2-0.4l5.9,0.5
	l2.3,0.8l0.4-1.8l5.3-1.4l-6.8,0.8l-1.8-0.5l-4.9,0.7l-0.1-1.3l2.3-2.3l4.1-0.9l1.9-1.1l3.1-0.2l2.6,0.3l1.2,1.3l4.4,1.7l-5.1-4
	l1.1-1.7l3.3-0.4v-1.6l-2.2-0.3v-1.2l1.9-0.9l2.8-0.7l3.2,0.8l-0.6,1.3l0.9,0.5l1.7-1.5l3.9-0.8l2.8,2.1l0.5,1.1l1.1-0.5l2.7-0.5
	l2.7,0.3l1.8-0.2l-1-1.3l0.4-1l2.4-1l1.7-0.3l2.6-1.2l-0.8-1l-1.4-0.3l2.9-1.5l-1.7-0.6l-2.4,0.9l-1.6,0.9l1.5,1l-1.1,1.1l-6.1,2.8
	l-3,0.8l-1.4-0.1l-1.9-2.5l-2.1-0.1l1.3-2.2l1.6-0.8l1.4-2.3l2.3-1.3l3.2-3.3l2.8-1.1l0.9-1.1l3-1.5l3-0.9l0.3-1l-2.7,0.9l0.4-2.1
	l1.4-1l6.8-2.8l1.6,1.3l2.1-0.2l2.3-1.6l-0.3-0.7l-2.1,1h-1.5l-0.4-0.6l-2.1-0.5l-0.3-1.2l1.3-2.8l3.4-3.3l0.5-1.3l1.3-0.7l1.7,0.2
	l-0.2-1.1l-2.1-1.1l6.2-1.1h3l2.4-0.9l0.5-1l-6.4,1.1l-2.4,0.1l-0.8-2.7l0.2-1.5l1.9-2.2l1.4-0.2l1.7-1.1l0.1-1.5l2.3-0.8l2.1-2.1
	l2.3-0.5l1.4,0.2l3-0.7l6.6-0.1l0.1-0.6l-6.3-0.3l-3.5,0.2l-0.4-0.6l2.8-2.7l2-1l1.7,0.2l1.8,1l0.6-0.8l-1.6-1.5l0.7-1.5l-2.6,1.1
	l-1.8,0.3l-0.9-2l2.3-2h2.3l0.3-1.5l3.3-1.3l1.9-0.2l1.5-0.6l0.6,0.4l0.9,2.3l1.5,0.3l1-0.8l-1.3-1.1l-1.1-1.8l2-1.5l2.3-0.2
	l2.6,0.7l2.3-0.2l0.9-1.2l-6.3-0.1l-0.8-0.9l1.2-1.2l2.2-0.8l2.5-0.1l2.4-1.4l0.9-1.1l0.3-1.6l1.4-1.3l3.9-0.8l-0.6-2.2l0.8-1.4
	l1-0.6l2.1,1.5l1.8,0.5l-0.5-1.4l0.3-1.2h2.1l1-0.5l0.3-1.3l1.4-1.2l4.7-0.7l0.5,2.5l0.7,1.4l0.8-2.8l1.6-2.1l2.4-0.9l0.9,1.1
	l-0.4,4.3l-1.9,2.4l1.5-0.2l2.5-2.3l0.6-1.2l-0.7-2.8l0.6-0.8l3.5-0.1l1.9,0.4l0.7-1.5l1.7-0.1l1.8,0.9l4.1,1.4l-1.3-2.2l-1-0.8
	l-2.1-0.5l-2.2-1l1.2-1l2.4,0.3l2-0.8l2.2-0.2l1.1,0.6l0.8-1l2.5-0.5l2.8,0.9l1.6,2.7l2.4,1.4l-0.1-1.4l0.6-1.9l2.3-2l2.1-1l1.4-0.1
	l2.9-3.4l-1.6-1l3.3-2.3l1.1-0.1l5.4,2.1l1.5-0.9l3.4,0.8l-0.8,1l-3.1,2.9l-0.5,0.8l-0.1,2.2l-1.2,1.4l0.8,1.4l1.6-0.4l1.8-1.3
	l0.1-1.3l4.3-3.7l1.9-2.1l2.3-1.7l1.5-0.3l0.9,1.1l-0.2,1.5l0.2,4.3l3.7-1.4l1.1-3l1.1-0.7l-0.8-1.4l0.4-1.1l2.3-1.3l2.2,0.4
	l3.3,0.3l2.7,0.8l0.2,1.4l-0.8,0.9l-2.9,1.1l0.7,0.7l2-0.6l0.9,5.5l0.9-2.1l1-0.7l0.1-1.5l0.8-1.9l1.8-1.3h2.7l3.3,1.7l2.5,0.3
	l1.8,0.8l2.4-0.7l2,1l0.1,1l3.8,0.3l3.8,1.6l0.6,1.6l-4.4,1l-1.8,1l-3.3,0.4l-11.5-0.7l0.4,0.7l8.3,1.5l0.6,0.5l0.4,2.1l1.8,0.7
	l3.5-0.2v-1.3l3.2,0.6l3.8,0.2l1.1,1.7l-0.3,1.5l-2.4,0.1l-4.2-1.4l-0.4,2.3l-1.1,0.9l-5.8,1.3l-1.1,2.6L693.7,140.3L693.7,140.3z
	 M653.2,112.6l3.7,0.5l2.2,1.4l-3.6,0.5l-1.7-0.1l-2-1.8L653.2,112.6L653.2,112.6z M313.6,116.5l-0.1-1l4.5-1.5l1.9-1.4l3.4-0.5
	l-0.2,1.8l-3,0.8l-3.3,0.5L313.6,116.5L313.6,116.5z M582.8,71.5l-1,0.5l-1.9-0.8l-0.8-1.2l3-0.1L582.8,71.5z M592.4,21.4l3.9,0.2
	l2,1.9l1.4,2l1.3,0.2l4.7-0.4l3.4,0.7l-1.4,1.1v1.2l5.5,1.3l1.8,0.1l3-0.4l6.5,1.7l-6.6,1.1l-2,1.9l-3.7,1.3h-2.6l-2.3,1.3l-2.2,0.1
	l-1.5-1.9l2.2-1.3l-3.1-0.4l-1.2,0.5l-10.5,1l-1.1-0.2l-0.9-1.2l2.8-0.6l0.2-1.1l2.5-2.4l-5.5-1.6l-2-1.2l-0.8-1l-2.5-0.9v-1
	l-1.7,0.1l-0.4-1.2L592.4,21.4L592.4,21.4z M638.6,20.8h-1.3l-2.6-0.8l0.7-1L638.6,20.8L638.6,20.8z M501,21.2l3.5,1.5l1.9,0.5
	l2.3,1.5l-0.7,0.9l-2-1.2l-3.6-1.3l-2.3-0.2l-3.3-2.5l-1.5-0.8l-0.8-1.7l3.6,0.7l1.6,1l-0.3,0.8L501,21.2L501,21.2z M656.6,17.8
	l2.7,0.1l-0.1,0.6l-7.3-0.4l-3.8,0.7l0.4-0.9l2.4-0.6l3.7-0.1L656.6,17.8L656.6,17.8z M546.7,7l1.4-0.6l5.4,0.8l2.5,0.9l1.3,1
	l-1.9,1.9l1.7,1l3.2-1.7l2.7,0.3l1.7,0.9l1,1.1l-0.2,1.4l3.1,1.1l3.4-0.2l2.4,0.3l1.5,1l1.9-0.2l0.2-0.8l2.6,0.2l3,0.8l-2.1,0.9
	l2.1,0.8l3.4,0.6l2.1,0.6l-1.5,1.4h-3.2l-2.9,0.3l-5.4,0.3l-3,1.6l-2.5,1.8l-0.4,1.6l0.6,1.1l-1.5,0.5l-3.3,0.2l0.2,3.9l-0.8,1.9
	l-3.3,0.3l-1.8,1.1l-1.2,2.1l-2.1,2l1,1l-2.1,1.9l1.2,1.8l-1,0.6l-2.1,0.3l-2.2-0.3l-2.3-1.1l-6.7-2.2l-4.3-2.4l-6-1.3l-3.3-1.6
	l-1.5-1.3l0.3-1.4l2.8-0.2l2.9,0.7l1.7-1.9l11.3-1.1l7.3-0.2l-1.9-1.3l-6.9,0.7l-4.3-0.2l-2.1,0.1l-2.1,0.6l-4.3,0.5l-4.6-0.1
	l-2.9-1l-1.3-2l1.2-0.6l3.8,0.1l6.4-0.9l3-0.8l3.1-0.1l-0.5-0.8l1.8-0.4l2.4-0.2l5.6,0.1l0.2-0.6L548,23l-0.9-0.6l2.6-1.8l-2.2,0.1
	l-3,1.3l-1.8,0.5l-4.6,0.3l-1.7-1.6l0.9-1.2l-0.8-0.7l-1.3,1.3l-2.1,0.3l-2-0.9l-1.9,0.5l0.7,1l-0.6,1l2,0.9L529,24l-2.1,1.1
	l-3.9,0.2l-4.5,0.1l-4.6-1.6l-2.2-1.2l-1.8-1.2l-2.7-0.6l-1.7-0.8l-0.4-1.1l-1.4-0.7L503,17h4.4l-1.7-1.8l0.5-1.6l-3.4,0.1l0.4,0.9
	l-2.2,1l-1.2-0.2l-2.3-1.9l-2.4-2.4l0.4-1.3l-1.2-1l1.5-0.7l2.5,0.9l0.8-0.7l3.8-0.4l4.6,1.1l0.4-1.1l4.2,0.5l3-0.6l5-0.3l2,0.4
	l-1,1.1l-6.3,0.3l-4,1.3l5.7-0.2l1,0.1l0.6,1.1l3,0.5l2.3,1l0.8-0.5l-0.6-2.2l4.4-2.3l2.1,0.4l2.1,0.9l4,3l2.3,1.9l6.1,2.8l-0.7-1.5
	l-4.2-4.5l-0.9-1.7l0.9-1.7l1.1-0.5l-0.4-1.3l1.3-0.5l2.4,0.3C544.1,5.7,546.7,7,546.7,7z M681.4,4.7l-8,0.4l-0.9-0.3l15.7-1.4
	l1.7,0.5L681.4,4.7z M562.5,2.8l-1.8,0.6l-3.2-0.5l0.9-0.7L562.5,2.8z M581.1,3.3l5.6,0.1l1.5,0.9l5.5,1.1l0.8-1.5l-0.6-2.2l1.9-0.1
	l1.7-0.6l3.1,0.3l0.2,1.3L600.3,4l2.1,0.1l2.8-0.3l1.9-1.1l2.4,0.1l1.3-0.6l1.4,0.6l8.2,0.7l3.3,0.6h5.2l3.7,0.2l2.8,1l1.1,1.7
	l-0.9,0.4l-6.7,2l-1.6,0.7l-2.4,2.3l-4.1,0.7l-3.5-0.3l-3,0.7l-1.9,1l-1.5,0.2l-9.2-0.4l-2.2-1.1l1.2-0.9l-8.2,0.3l-9.2-0.1l-1-0.5
	l-5.6-0.5l-4.2-1.1l1.1-0.5h5.8l-0.7-1.5l-2.9-0.1L574,8.7l-4.3,0.2l-4-0.1l-1.9-0.3l-3.8-1l-0.7-0.8l2.8-0.4l2.1-0.7l-4.5-0.3
	L557.8,5l-0.6-0.9l5.9-0.2l5,0.8l-0.7-2.2l3.9,1.1l0.2-1.1l-2-1.4l2-0.1l4.5,0.7L581.1,3.3L581.1,3.3z"/>
<path id="PL" class="st29" d="M666.8,348l0.6-0.6l2.3,0.7l4.5,2.2l1.1,0.9l0.8,3l2.1,5.1l2.9,4.9l1.7,3.6l0.9,3.9l-0.6,1.6l-4,1.7
	l-0.8,0.5l-2,2.7v1.2l3.3,1.3l1.8,1l0.8,1l-0.2,2.4l0.4,1.1l-0.8,1.5l0.1,1.3l1,1.6l1.2,1.8v1.3l2.7,2.8l1.9,2.8l1.4,1l-1.2,1.3
	l1.8,2.6l0.1,1.3l-1.2,1.8l-3,0.5l-4.8,4.6l-2.4,2.7l-3.4,4.4l-0.6,1l1.5,3.8l-0.1,1.8l1.9,1.4l-0.4,0.9l-3.3-0.7l-0.9-0.2l-5.7-1.9
	l-0.8-1.4l-1-0.7l-3.1-1l-3.6-0.3l-3.2,0.2l-1.4,1.5l-1.8-0.1l-2.4-1l-3,0.1l-2.3,1l-1.1,2.1l-1.7-0.6l-1.4,0.4l-0.6-2.7l-1.4-0.4
	l-3-3l-2.2,1.3l-1,1.7H631l-0.5-1.5l-1.3-0.2l-0.5-1.6l-2.8-2.2l-0.5-1.8l-2.7-0.8l-0.5,0.2l-3.5-1.8l-1.8,1l-1-0.6l-2.7-2.3
	l1.4-0.5V409l-3.6,0.7l-3.3-1.9l-2.2-0.6h-1.3l1.7,2.4l-3.5,2.5l-1-0.4l-1.5-1.9l-2-1.8l-1.6-0.9l1.6-1.2l0.7-1.1l-1.8-1.2l-3.2,0.7
	l-0.8-0.9l-2.7-1.1l-4.6-1.1l-1-1.1l-0.3-1.1l-3.3-0.8l0.1,1.9l-2.1,0.4l1.6-3.6l0.4-2.3l-1.6-3.2l-2.2-0.9v-1.6l-1.9-3.1l0.8-1.1
	l0.7-2.6l-0.8-1.9l-2-2.3l0.6-2.6l-1.4-1.7l-3.3-2.1l-1.6-1.4l0.7-1.6l1.9-1.8l0.3-2.7l-1.8-4.1l-0.7-2.6l2.8,0.9l0.7-0.5l-0.1-1.8
	l-4.1-0.7l-0.1-1.2l2,0.4l3.8-1.4l6.5-1.8l6.9-1.7l3.3-0.5l2-2.2l1.9-1.7l3.8-0.7l1.3-0.8l2.8-1.2l6.6-1.2l5.5-0.4l5.4,2.3l-0.9,0.3
	l-3-1.2l2.2,3.5l1.1,1.2l2,0.9l1.7,0.3l4.9-0.5l2.2-1.1l0.5,0.1l6.6,0.4l22.9,0.9L666.8,348L666.8,348z"/>
<path id="PT" class="st1" d="M306,611.9l-1.2,0.2l-4.5,2.5H299l-2.5-1.1l-4.5-0.4l-1.5-0.3l-1.8,0.7h-1.5l-1.1,1l-0.8-0.3l1-2.1
	l1.6-4.1v-2.6l0.4-2.2l-0.3-2.1l-0.7-1.4l1.1-3.5v-1.8l-0.9-2.3l2.8,0.3l-1.7-1.4h-1.5l-2.3,0.9l-1.5,0.1l0.1-1.4l-0.5-1.8l2-0.6
	l1.6-1.7l-0.3-1.6L285,586l-0.6,1.4l-2.8,0.7l-1.5-0.5v-1.9l0.6-1.7l0.4-2.3l0.8-2.2l-0.2-1.4l1.6-1.3l1.4-1.9l4.3-8.9l-0.6-1
	l1.7-6.6l1.2-2.3l0.6-4.3l-0.2-2l-0.7-2l-0.7-4.3v-1.4l-0.9-1.8l0.1-1l1.4-1.7l1.2-1.1l1.9-0.9l4.1-1l1,1.8l-1.3,1.9l0.9,1.3l3-1.1
	l2.9-0.1l2.2,0.8h1.4l2.5-0.9l0.8-1.4l1.5,0.5l5.2,0.1l0.7,1.1l0.1,3.1l1.9,0.2l1.9,0.9l0.3,1.1l-2.5,2.5l-2.1,1.1l-1.6,1.4
	l-1.1,1.6l-2,1.6l0.8,2l0.4,3.5l-0.4,3.8l0.4,1.1l-2.7,2.1l-0.2,1l1.4,1.3v1.9l-1.7,3.5l-1,0.5h-4.3l-1.1,0.3l1.1,1.9l1.4,1.2
	l0.3,1.9l1.6,3.2l1.7,0.4l0.5,0.8l-0.6,2.4l-3.2,3l-0.9,4l3,4.3l1.7-0.2l-0.7,2.4l-2.1,0.6l-3.5,4.3l-0.8,2.2L306,611.9L306,611.9z"
	/>
<path id="RO" class="st30" d="M751.4,483.2l1.5,1.6l1.8,0.9l4,0.9l0.6-1.2l0.9,0.3l1.6-0.5l2.2-1.3l2.2-0.2l2.2,0.7l1.9,1.8
	l-0.2,4.3l-0.7,2.1l-6.2,1.3l0.4-0.6l-0.7-2l-1-1l-0.9,1.1l0.6,1.7l-0.7,1.4l-0.2,2.4l0.6,0.9l-1.6,2l-0.5,1.3l0.8,4.8l-0.4,3.7h-2
	l-2.6-0.5l-2.2-0.7l-2.5-2.6l-1.7,0.5l-0.9-0.6l-3.2-0.4L740,503l-2.9,0.4l-4.4,0.9l-3.2,1.2l-3.3,2.1l-1.2,1.6l-1.6,0.9l-2.3,0.6
	l-4.2-0.2l-9.4-1.7l-2.5,0.5l-3.5-0.4l-5.3-1l-3.9-0.3l-3.7,0.6l-0.9-1.8l1.8-2l-4.3-2.5l-0.8-1.2l-1.6-0.9l-0.5-1.7l2.5-1.8l-3-1.6
	l-1.7,0.5l-1.7,1.8l-1.3,0.2l-1-1.2l-1.5-0.7l-3.5-0.7l-1.5-1.2l-2.1-0.6l0.2-0.6l1.8-0.8l-2.3-1.1l1.5-2l-0.9-1.1l-2.6-0.8
	l-3.8-1.9l-2.2-1.8l-0.4-4.1l-0.8,0.2l-1.8-2l-2.9-1.7l-1.7-2l3.2-0.9l1.4,0.5l2.5-2l2.6,0.3l1.3-0.9l1.5-4.7l2.1-1.5l-0.2-1.3
	l1.6-2.7v-1.2l1.4-1.5l0.7-2.5l1.4-1.4l-0.1-1.7l1.2-1l1.9-2.4l4.6-1.1l2.2-2.3l2.1-0.9l0.9-1.2h0.7l2.7,1.5l2.7-0.1l6.9,1.4
	l3.6-0.7l1.2,0.3l4.3,3.3l2.1-0.5l1-1.2l3.4-1.3l8.4-1.2l1.1-1.9l0.2-1.4l3.7-0.8h2.1l2.5,1.6l2.5,3l3,4.9l1.5,1.3l2.5,3.2l2.1,1.8
	l1.3,1.7l3,2.1l1.4,2.9l1.4,2.3l0.5,2.9l-0.9,4.8l0.1,2.6l1.4,5l-0.9,0.7L751.4,483.2L751.4,483.2z"/>
<path id="RS" class="st31" d="M651.6,473.1l1.7,2l2.9,1.7l1.8,2l0.8-0.2l0.4,4.1l2.2,1.8l3.8,1.9l2.6,0.8l0.9,1.1l-1.5,2l2.3,1.1
	l-1.8,0.8l-0.2,0.6l2.1,0.6l1.5,1.2l3.5,0.7l1.5,0.7l1,1.2l1.3-0.2l1.7-1.8l1.7-0.5l3,1.6l-2.5,1.8l0.5,1.7l1.6,0.9l0.8,1.2
	l-0.9,0.7l-0.2,1.9l-2.1,1l-0.4,2.3l0.6,2.4l2.4,3.9l2.9,1.5l1.3,1.6l1.6,1l-0.3,1.4l-1.6,1.7l-1.1,1.6l-1.8,0.1l-1.1,0.6v3.3
	l1.4,2.9l-1.1,1.7l-1,0.3l-1.4-0.7l-2.3,0.8l-1.9-0.3l-2,0.9l-2.2,0.3l-0.6-1.3l1-0.9l1.2-3.2l0.2-1.2l-4.7-1.2v-1.3l-2.2-1.2
	l-0.2-0.7l-2.3-2.1l-2.8-1.3l-1.1-1.3l-1.7,0.9l0.6,1.6l-0.4,1l-1.7,1.3v1.4l-1.5,0.5l-0.1-1l-5.3-2.9l-2.1-0.5l-3-1.6l-1.9-2
	l-2.6-1.7l-0.4-1.2l0.7-0.8l2.5,0.3l0.2-2.2l-3.2-3.7l0.5-0.8l3.1,0.1l0.3-0.8l-3.3-2.9l-2.4-1.2l-0.5-0.8l0.1-2.6l1.6-2.7l0.5-2.5
	l-1.5-0.8l-2.8,0.7l1-1.6l-0.7-2.6l1.7-0.4l2.3-0.1l-0.9-1.5l-3-1l-1.2-1l0.4-2l-1.3-0.4l-0.2-1.6l-1.6-2.7l0.7-1.5l2.1-1.3l1.6,0.5
	l2.2-1l1.5-1.6l1-0.3l2.9,0.4l1.1-0.2l2.8,0.3L651.6,473.1L651.6,473.1z"/>
<path id="SK" class="st32" d="M674.8,427.7l-1.5,3l-0.8,2.9l-1.6,1.7l0.1,2.5l-4.3,1.1l-0.6-0.2l-2.2-2.2l-1.4-0.9l-4.6,0.7
	l-2.5-0.6l-2.7-0.1l-1.8,0.4l-1.6,3.5l-5,2.5l-3.5-1.4l-0.7,0.2l-1,1.5l-2.4,0.6l-4.3,0.4L631,444l-0.4,1l0.5,1.3l-0.6,1l-7,0.4
	l-4.7-0.1l-1.6-0.7l-4.2-2.7l-2.1-0.3l-2.3-2.9l-1.6-2.9l-0.1-0.8l0.9-2.4l1.1-2.8l1.4-1.2l3.6,0.5l1.7-0.2l1.5-0.7l2.1-1.9l1.6-0.8
	l0.7-3l2.3-1.2l0.6-0.8l2-1.5l2.8-0.3l1.3,0.2l0.5,1.5h2.2l1-1.7l2.2-1.3l3,3l1.4,0.4l0.6,2.7l1.4-0.4l1.7,0.6l1.1-2.1l2.3-1l3-0.1
	l2.4,1l1.8,0.1l1.4-1.5l3.2-0.2l3.6,0.3l3.1,1l1,0.7l0.8,1.4l5.7,1.9L674.8,427.7L674.8,427.7z"/>
<path id="SI" class="st33" d="M605.2,467.1l-2.5-0.6l-0.9,0.8v1.7h-2l-0.7,1l-4.4,1.7l-0.4,1.4l0.9,0.9l0.2,2.2l-0.4,1.1l-2.1,0.6
	l-2.1,1l1,1.1l-0.7,0.7l0.8,2.3l-1.2,0.4l-1.6-0.2l-2-0.7l-1.3,0.5l-1.5-0.7l-2.6-2.1l-1.2,2.2l-0.6,0.3l-3.6,0.1l-1.1-0.5l-1.4,1.3
	l-3.3-0.8l-0.5-0.6l1.7-1.1l1.5-0.1l-0.2-1.3l-1.5-1.3l-1.9-1.1l0.4-2l-1.3-0.2l-0.3-1l1.6-2.1l-2.3-0.7l-0.7-1.4l3.3-2.3l0.2-0.9
	l5,0.9l5,0.7l3-1.2l1-1.3l1.9-0.7l2.6-0.2l2.8,0.2l2.3-1.1l1.6-0.2l2.4,0.5l0.1-1.9l1.3-0.9l2.4,0.1l1.4,3.3L605.2,467.1
	L605.2,467.1z"/>
<path id="SE" class="st34" d="M591.1,319.4l-1.5-0.3l-0.3-3.8l2-4.6l1-0.3l2.7-6.5l0.5,2l-1.5,3.2l-0.3,2.2l-0.6,0.5L591.1,319.4
	L591.1,319.4z M617.3,296.7l-1.3,1.4l-1.4,0.5l0.1,3.3l1.5,1.2l-1.3,0.5l-0.7,1.8l-1.8,0.6l-1.5,1.6l-0.3,1.6l-2.1,0.9l1.2-2.4
	l-0.9-0.7l-1.4-2.1l0.4-0.9l-0.6-3.2l2.7-2.9l1.3-1.1l3.3-1h1.3L617.3,296.7L617.3,296.7z M654.1,183.7l-2.7,0.3l-2.2-0.6l-1,0.3
	l-3.8,0.3l-1.1,0.7l-2.1-0.7l-2-1.2l-2,1.1l-1.6-1l-1,1.9l0.1,1.8l-1.8-0.2l0.3,1.1l-2,1.5l-3.2,0.2l0.7,1.5l-0.9,0.7l1,1.7
	l-1.3,1.5l-2.1,1.9l-0.5,1l1.7,1.1l1.6,2.5l1.6,1.1l-0.4,1.2l-2.1,1.1l-2.2,1.7l-2,4.3l-3.1,1.3l-2.4,1.6l-3,0.7l-2.4,2.2l-1.8-0.8
	l-1.5,0.5l-1,1.8l-1.9,1.5l-2.4-0.2l0.2,0.8l-2.3,0.3l-1,4l-2.2,0.6l-0.7,0.8l-0.9-0.6l-2.1,0.1l1.6,2.8l-1.7,1.8h-1.2l-1.5,0.7
	l-1.9-0.8l-0.2,1.2l0.8,1.3l1.3,1l-0.1,1.3l-0.9,4.3l0.7,1.8l-2.1,1.2l-0.8,1.1l0.6,1.7l-0.1,1.1l0.7,1.9l0.8,4.2l1.1,2l-0.1,1.6
	l1.3,0.9l2.1-0.1l1.4,1.6l3.1-0.8l0.8,1.1l2.9,2.2l1.7,0.3l1.9,1.2v1.5l2.9,1l1.9,2l0.8,1.6l-0.1,1l-2.6,1.5l-1.3,1.3l-3.8,2.1
	l-0.6-0.1l-2.1,1l2,0.6l1.4-0.7l2.6-0.6l1.4,1.2l-2.2,0.5l-0.3,1.6l-0.8,1l-2,0.7l-2.8,1.5l-4,1.4l-1.1,1.2l-2.6,1l-1.3,0.8h-3.8
	l-3.7-0.1l1,0.9l0.9-0.2l3.6,0.4l1.7,1.3l-3,0.9l1.7,3.2l-0.7,0.8l0.4,3.5l-1.1,0.1l-0.3,1.4l0.6,2.5l1,2.1l-0.1,1l-1.5,2.4l0.9,2.9
	l-1.5,5.3l-1.9,3.1l-1.3,4.1l-1.8,1.4l-2.4-0.9l-3.4,0.5l-3.2-0.3l-3,0.2l-0.8,0.4l0.7,1.4l-2.3-0.2l-1.7,1.1l-2,2.1v1.5l1.9,3
	l-1.7,2h-1.1l-3.2-0.5l-5.5,1.2l-5.1-1l0.5-1l0.2-3.1l-0.6-1.7l-1.3-1.1l-3.1-3.8l-1.2-2.3l2.4,0.9l1-0.5l-1.8-2.6l2.2-0.1l0.7-1
	l-0.6-1.5l-1.9-0.6l-1.9-2.4l-1.8-1.2l-3.5-4.7l-1.3-3.2l-1.1,0.3l-1.2-3.7l-1.7-0.6l-0.6-3.7l-1.8-0.4l-1.3-1.7l-0.4-3.2l-1.2-0.6
	l-0.8-1.4l-0.8-3l-0.3-2.7l-0.9-1.8l0.5-1.2l1.1-0.2l1.1,0.8l1,1.8l1.9-0.2l0.7-1.4l0.6-3.9l-1.6-4.4l1.5-1.5l0.9-2.4l2.6-0.7
	l1.3-0.8l1.9-2l0.1-2.8l0.6-2.1l-0.5-1.4l-3.1-4.9l-0.3-1.6l1.8-0.6h2.4l1.3-2.5l0.4-1.9l-3.4-2.7l-1.2-0.4l-3.8-2.1l0.9-6.4v-1.6
	l-2.5-4.4l0.1-1.8l-0.6-2.8l1.1-1.1l-2.7-4.1l2-2.8l-0.5-1.5l1.2-1l3.5-3.8l3.3-1.5l3.3-0.4l7.1,0.9l1.7-2.2l-0.1-1.2l-1.1-2.9
	l-4.7-1.6l4.4-5l3.3-5l0.1-4.7l0.6-2.7l-1.4-3.9l3.8-0.4l2.4-0.5l3.3-1.5l-1-2.5l1.3-0.9l3-2.9l3.3-2.9l1.5-1l0.2-1.4l-1-1.3
	l-2.7-2.3l0.5-1.1l2.7-0.6l1.1-1.1l1.5-3.5l3.7-1.9l1.5-0.9l6.3,1.8l2.1-3.1l-0.8-3.6v-0.8l2.1-0.5l4.1,0.9l2.9,0.1l8.6,1.7l1,0.1
	l2.5-1.6l-2.9-0.9l1.6-0.9l1.4-1.9l-0.1-2l-2.6-1.6l5.1-0.2l2.9,0.8l0.4,0.9l2.9,1.1l4.8,2.3l4.2,1.8l8.3,1.7l3.5,1.8l1.2,1.6
	l1.4,0.1l1.9,1.5l1.8,0.9l-1.1,1l0.4,2.4l0.7,1.4l-0.3,1.9l2.8,0.4l0.6,1.3l-1,0.8l-0.1,1.1l0.8,1.6l3.3,2.6l0.6,0.9l-0.7,1.4
	l0.1,1.8l-1.5,1.3v1.3l1.3,2.6l1.8,0.6l1.9,2.2L654.1,183.7L654.1,183.7z"/>
<path id="TR" class="st35" d="M733.4,565.7l-2.9,0.5l-0.1-1.5l2.2-0.6L733.4,565.7z M927.9,544.2l4.3,1.3l1.1-1l3.6,0.1l3.4,0.8
	l0.9-1.9l1.4-0.4l1.4,0.3l0.6,1.1l1.2,0.4l3.5,2.5l1.1,1.7l1.9,0.2l1.3,1.2l1.3,1.6l1.7,1.2l1.7,3.3l-0.2,2.3l-1,1.4l0.8,1.9l1.9,3
	l-0.5,0.6l1.8,0.9l2.9,0.9l3.5-0.4l1.6,0.7l2.3,1.7l3.2,2.8l0.8,0.9l-3.3-1.9l-1.4,1.6l-0.1,3.8l-0.6,0.4l-2.8-0.1l-1.2,0.4l1.2,2.5
	l1.4,1.2v2.3l2.1,2.5l0.2,2.1l0.9,2.2l0.3,2.2l0.5,0.7l1.4,0.3l-0.6,3.8l-0.6,1.2l-0.4,2l1.7,0.6l3.2,2l0.1,1.3l0.6,1.5l0.3,2
	l3.2,2.3v2.3l-2.1-0.5l-3.7,3.1l-1.2-1.2l-0.3-2.4l-1.5-1.5l-1.3-0.2l-2.1,1.4l-4.2-0.3l-2.9-1.1l-2.9-0.8l-1.9,0.6l-2.2-0.7
	l-1.5,1.9l-2,1.9l-1.2,0.3l-1.6-2.6l-1.3-0.2l-1.2,1.3l-2.2,0.8l-4.6,1l-3.2,0.3l-4.1-0.6l-3.2,0.2l-3.1,1.4l-5.2,2.8l-4.1,1.4
	l-4.2,0.9l-7.6-0.2l-1.1-0.3l-3.5-2.3l-3.4-0.6l-3.4,1.6l-2.3,0.8l-3.5,1.6l-4.8-0.1l-1.9-1.7l-3.7-0.7l-0.6,1.6l-0.3,3.8l1.8,3.1
	l-3.3,1.4v2.6l-1.8,1.1l-0.8,1.6l-2.2-1.2l-1-0.1l0.7-1.3l-2.5-4.9l0.7-1.5l3.5-3.9l-0.4-2.4l-2-1.6l-2.9,2.1l-1.7,0.8l-0.3,1.2
	l-1.1,0.8l-1.8,0.4l-2.9-1l-3.2-1.4l-1.9-1.1l-1.4-0.3l-1.3,0.5l-3.5,2.8L844,625l-0.8,0.8l-3.2,1.7l-2.2,0.6l-1-0.1l-4.4,0.8
	l-2.2,0.1l-1.6,0.9l-3.5-1l-2.2-1.3l-1.4-1.3l-2.3-2.9l-1.6-1.3l-3.3-1.2l-5.8-3l-5.3-0.7l-4-0.3l-0.7,1.1l0.1,4.2l-0.5,1.2
	l-0.1,2.2l-1.1,1.1l-2.1-1l-1.9,0.9l-3.7,1.3l-1.2,0.1l-4.6-1.6l-2.9-2.1l-0.6-2l-1.3-2.7l-1.8,0.3l-2.3-0.4l-3.2-1.6l-2.4-0.1
	l-1.2,1.9l-1,0.7l-1.3-0.4l0.8-1.3l-3.7,0.2l-1.8,1l-1.5-0.1l-1-1l2-0.6l3.9-0.4l0.9-0.4l0.9-1.3l1.7-1.2l-1.2-0.5l-6,0.3l-4.2-0.2
	l-1,0.7l-0.4-1.6l3.6-1.4l-0.3-1.3l-4.2-2.2l-0.3-1.6l-2-3.1l1.9-0.5l0.1-2.5l-0.4-1.5l-3.9-1.3l-0.8,0.1l-1.1-1.3l-1.7-0.9
	l-1.2,0.7l-3.3-1.4l-0.6-0.6l0.5-1.4l1-1.1l-0.9-1.9l-0.1-1l1.8-0.1l1,1.1l0.3,2.2l3.6,0.7l2.9-0.6l-2.5-1.1l-1.1-1.2l-1.2-2.3
	l1.8-1.1l1.2-1.7l-2.7-1.2l0.2-2.4l-2.5-2.7l0.3-0.8l2.3-2.8l-1.2-0.7l-4.3,0.7l-1.6,0.6l-3.1,0.2l-0.3-1.6l0.6-1.3l-0.5-3.4
	l0.2-1.8l1.7-0.6l1.7-2.7l3-3.1h3.5l1.3-0.9h2.1l0.8,1.2l1.9,0.9l3.2-0.1l1.4-0.9l-1.6-1.5l1.7-0.5l1.5,0.4l-0.1,1.8l4.1-0.5
	l4.4,0.4l1.4-0.2h3.4l0.5-0.5l-3.6-1.7l2-1.5l6.8-1.2l3.7-0.8l-5.7-0.8l-1.4-0.6l-2-1.4l-1-1.1l0.3-2.6l0.6-0.7l2.2-0.1l7.7,1.2
	l5.3-0.8l6.1,1.8l5.6-0.4l1.1-0.7l1.1-2.6l7.4-4.2l2.4-2.1l2.8-1.2l5-1.4l4-1.7l1.2-0.2l10.4,0.8l7,0.1l3-1.6l2,0.5l-0.1,2.1
	l2.6,2.6l3.5,1.4l4.4-1.2l1.8,0.5l2.2,4l1.5,1.4l1.8,0.9l1.3,0.2l1.5-1.4l1.7-0.1l2.9,1.3l1.2,1.4l4.8,1.1l4.3,0.6l2,1.2l6.2,1.2
	l2.2-0.2l3.6-1.3l7-1.3l5.2,1.9l2.5,0.1l1.7,0.5l1.7-0.3l5-2.3l1.4-1.2l1.7-0.4l5.2-3.3L927.9,544.2L927.9,544.2z M756,537.1
	l-0.1,1.8l1,2l2.3,2.7l2,1.4l8.1,3.3l1.4,0.3l-0.9,3.5l-2.1,0.5l-6.4-1.5l-1.6-0.1l-2.9,1.4l-2.3-0.4l-3.1,0.6l-0.6,2.1l-2,2.4
	l-3.3,1.9l-2.5,1l-3.5,3.7l-1.5,2.2l-1.5,0.7l0.5-2l-0.3-1.7l2.3-2l3.3-1.6l0.7-1.3l-5.4,0.3h-3.3l-1-1.8l0.8-0.4l2.5-3.2l-0.5-4.4
	l3.4-2.5l-0.9-3.1l-2.3-1.5l-1.2-0.3l0.3-1.4l1.9-0.3l1-2.2l3.4-0.4l1.5-1.1l3.5-0.3l3.4,2.5l1.5-0.6h1.8l0.9-0.4L756,537.1
	L756,537.1z"/>
<path id="UA" class="st36" d="M796.7,471.6v0.6l-3.9-0.8l-0.9-0.9L796.7,471.6L796.7,471.6z M770.3,486.2l-1.9-1.8l-2.2-0.7
	l-2.2,0.2l-2.2,1.3l-1.6,0.5l-0.9-0.3l-0.6,1.2l-4-0.9l-1.8-0.9l-1.5-1.6l1.1-0.7l2-0.2l0.4-1l-0.5-1.4l2.5-2.9v-1.3l2.3-1.7l0.4-2
	l-1-1.7l-0.5-2.1l2.5-1.6l2.1,1l1.9,0.2l2.1,0.8l1.6-0.6l1.2,1.3l2.9-0.4l0.6-0.7l-2.9-1.7l-0.2-2.9l-1-1.6l-2.1-0.8l-2-1.3
	l-0.9-1.9v-2.4l-2.9-2l-2.3-1.2l-0.6-1.2l0.6-3.1l-0.6-2.3l-1.4-1.4l-1.4,0.7l-1.4-1l-1.4-1.9l-5.6-0.6l-0.6-1.2l-2.5-0.3l-3.6-2.4
	l-3.5-1l-1.6,1l-0.8-0.3l-1.2,1l-4-0.1l-0.7-0.2l-2.3,1.4l-0.2,0.6l-3.7,0.8l-0.2,1.4l-1.1,1.9l-8.4,1.2l-3.4,1.3l-1,1.2l-2.1,0.5
	l-4.3-3.3l-1.2-0.3l-3.6,0.7l-6.9-1.4l-2.7,0.1l-2.7-1.5h-0.7l-0.9,1.2l-2.1,0.9l-0.7-1.7l-0.9-0.7L677,442l-0.9-1.1l-2.2-0.8
	l-1.4-2.3H671l-0.1-2.5l1.6-1.7l0.8-2.9l1.5-3l3.3,0.7l0.4-0.9l-1.9-1.4l0.1-1.8l-1.5-3.8l0.6-1l3.4-4.4l2.4-2.7l4.8-4.6l3-0.5
	l1.2-1.8l-0.1-1.3l-1.8-2.6l1.2-1.3l-1.4-1l-1.9-2.8l-2.7-2.8v-1.3l-1.2-1.8l-0.1-1.4l1.1-0.5l1.9,0.3l1.1,0.5l1.9-1.2l1.6-1.6
	l0.8-1.4l5.9-0.5l2.3-0.5l2.4-0.1l7.8,0.4l6.5,1.5l6.1,0.9h2.3l1.8,2.1l1,0.3l3-0.1l1.1,0.4l0.8,1.4l1.2-1.7l1.9,0.5l1.9-0.7l5.1,1
	l0.8,1.3l1,0.3l0.6-1.1l3.8-1.6l2.5,3l0.6,0.5l2.3-0.8l7.1-0.6l2,1.1l0.5,1.2l2.7,0.9l0.8-1.4l-1.8-3.6l1-3.3l0.8-1.2l2.2-2.3
	l1.1-0.5l1.7,0.4l1.4-0.8l5,0.1l2.6,0.8l1.7-0.1l1.8-0.9l0.5-2.4l1.6-0.6l3.7,0.9l1-0.1l2.7-1.2l1.6-0.2l2,0.3l3.4-0.2l2.5,1.4
	l1.4,1.4l1.7,2.7l4,3l-0.1,1l-2.9,0.5l1.3,1.9l0.5,2l1.2,1.7l-0.4,1l3.1,0.1l2.9,1l4.1-0.5l1.5,2.2l1.9,0.2l0.2,0.9l1.4,2.8l0.9,1.1
	l-0.2,1.8l0.5,1l1.9,1.6l0.7,1l1.1,0.4l2.3-1.4l2.8,0.4l2.7,2h2.3l1.7,1.1l1.4-1.3l4.3-0.9l2.3-1l1,0.1l2.3,1.8l0.5,1.2l1.5,1.6
	l4.7,2.9l1.3-0.6l0.9-1.5l2.6,1.4l2.4,0.2l3.6,1.9l1.4,0.1l1.6-0.6l2,1.8l1.9,0.2l4.4,2.3l2.9-0.3l1,0.8l-0.1,1.7l1,0.9l-0.1,2.6
	l-1.7,2.1l-2.3,0.8l1.1,1.5l3.1,0.9l-0.9,0.9l-1.4-0.2l-0.8,1l-0.3,2.3l2.5,0.7l1.2,2.8v1.1l1.2,0.3l-1.3,4.7l-0.1,1.8l-4.2,0.2
	l-6-0.3l-0.9,0.2l-0.9,1.9l-2.3,1.4l-1.7,0.2l-0.8,0.8v2.3l-0.4,1.3l1.1,0.7l-0.7,1.6l0.5,1.3l-0.5,0.1l-4.3-0.2l-3.4,0.3l-2.1,2.4
	h-1.5l-3.2,1.5l-1.4,1.7l-1.4-0.8l-3.1,0.5l-1.7,1.1l-3.1-0.1l-2.3,0.6l-4.6,3.8l-1.3,0.1l-1-1l-1.6,2.6l-2.4,1.2l0.6,3.1l2.8,4.5
	l3.6,3.9l1.7,1.4l2.4,0.7l3.1-1.4l2.4,0.4l1.7-1.2l1.5-0.1l3.7,1l-1.1,2.5l-0.3,2.6l-1.9,0.6l-2.2-0.1l-2.2,0.4l-2.7-1.5h-2.5
	l-1.1,1.9l-2.3,1.3l-0.6,1.4l-2.6-0.3l-2.1,0.2l-2.8,1.4l-1.9,2.8l-2.3,1.8l-1.9,0.5l-2-0.1l-1.3-0.6l-2.9-1.8l0.7-2l0.5-3.5
	l-1.2-2.9l-2.3-1.4l-1.6,0.2l-0.9-0.3l-3.7-2.4l-1.9-0.2l-1.9,0.5l-1.5-1.2l3.5-2.9l3.5-2.4l1.7-0.2l2.1-1.2l2.2-1.6l-1.3-2.3
	l-1.9,0.6l-2.2-1.1l-0.9-0.8l-3.1,0.8l-1.8-0.1l-3.8,0.8l-1.9-0.8l-4-2l-2.6-0.3v-1l1.8-0.3l0.1-1l-3.8-0.6l-0.1-1.3l2,0.5l3.2,0.2
	l2.9,0.5l2.1-1.8l-2.4,0.5l-2.9-0.5l-2.1-1.8l-2.2,1.2l-3.2-0.5l-2.4,0.8l-2.3-0.2l-4.1,1.1l-0.4,2.9l-2,4l-3.1,3.7l-4.6,2.1
	l-1.7-0.4l-0.9,1.1l0.2,1.3l1,0.9l1.1,3.1L770.3,486.2L770.3,486.2z"/>
<path id="XK" class="st37" d="M674,532.8l-2.1,0.4l-1.5,1.9l-1.6-1.2l-1,0.1l-3.4,1.5l-0.2,2.6l-0.5,0.8l-1.7-0.3l-0.1-2.2l-1.4-3.2
	l-1.9-1.3l-1.4-0.5l-2-2.9l-0.5-0.4l0.2-1.3l-0.9-1.5l2-0.4l0.2-0.7l1.6-0.4l1.5-0.5v-1.4l1.7-1.3l0.4-1l-0.6-1.6l1.7-0.9l1.1,1.3
	l2.8,1.3l2.3,2.1l0.2,0.7l2.2,1.2v1.3l4.7,1.2l-0.2,1.2l-1.2,3.2l-1,0.9L674,532.8L674,532.8z"/>
<path id="NL" class="st38" d="M452.2,392.5l-0.6,1.2l-3.2,1.5l-3.9-1.1l-1.2,0.6l-1.2-0.7l-0.3-1.3l2.8-0.4l3.5,0.7l1.5-0.6l1.2,0.5
	L452.2,392.5L452.2,392.5z M448.8,387.2l1.5,1.4l-1.5,0.3l-1.6-1L448.8,387.2L448.8,387.2z M466.9,378.7l-3-0.4l-0.9-0.7l2.4-1.7
	l3.2-1.5l1.7,0.4l0.5,0.9l-1.1,1.1L466.9,378.7L466.9,378.7z M459.3,367.2l-1.1,1.1l-0.6-1.4l1.7-1.4V367.2L459.3,367.2z
	 M452.2,392.5l-2.6-0.8l-2.2,0.5l-2.8-0.7l-1.7-1.3l1.2-0.7l2.3-0.1l4,0.7l1.2-0.9l-0.6-1l-2.3-2.1l1.6-2.7l1.4-1l3.2-3.8l0.9-2
	l1.2-5.5l1-2l1.4,0.5l2-0.8l3.4-2l1-1.7l1-0.9l4-1.6l2.1-0.4l8.9-0.5l1.8,1.7l2.7,0.6l0.1,4.3l-0.7,1.7l-1.1,3.8l-3.1-0.1l-0.6,1.6
	l0.7,1l2.6,0.3l0.8,1l-0.6,2.6l-2.6,1.6l-0.3,0.9l1,0.9l-0.7,1l-4.5,1.3l-2.3-0.8l-1.8,0.7l-0.7,1.1l3.1,4.1v1.2l-1.3,2.8l0.7,1.2
	l-2.2,1.6l-0.5,0.8l1.9,1.2l-0.6,2.4l-1.2-0.1l-2.4-0.3l-0.7-1.1l1.1-1.3l1-2.9l-2.6-1.1l-1.7-1.3l-1.9,0.4l-2.6-1.4l-0.5-1.6
	l-2.5,0.8l-1.1-1.3l-1.5,1l-1.5-0.8l-1.4,0.7l0.2,0.9L452.2,392.5L452.2,392.5z M470.3,376.9l0.9-0.9l-0.5-1.9l-2.1-0.3l-0.5-0.8
	l0.4-2.5l-2.8-0.4l-0.4-2.5l-1.5,0.3l-2.3,1.5l0.6,1.3l1.6,1.6v0.9l-2.1,0.7l0.1,2.6l-0.2,1.6l5.4,1.4L470.3,376.9L470.3,376.9z"/>
<path id="ES" class="st39" d="M420.4,584.7l-0.4,1l-2-0.4v-1.5l1.2-1.6l2.7-0.7l0.8,1.3L420.4,584.7L420.4,584.7z M442.1,571.1
	l1.2,0.5l1.3-0.5l1.4,0.4l0.2,1L444,576l-0.6,1.4l-2.1,1.3l-4-1.7l-0.3-1.6l-1.4-0.7l-1.7,1.3l-1.4-1l-0.3-1.2l5.3-3.7l1.5-0.9
	l3.2-0.9l0.5,1.2L442.1,571.1L442.1,571.1z M456.8,570.3l-0.3,0.2l-3.9-1.9l-1.6-0.4l0.1-1.4l2.6-0.2l2.1,0.7l1.2,1.8L456.8,570.3
	L456.8,570.3z M379.4,514.8l0.5,1.3l4.3,1.3l-0.3,3.2l1.8-0.4l4.4,1.7l2.2,0.2l2.2,2.1l3.6-0.4l3.2,2.1l3.1-0.4l0.7,0.4h4.7l0.8-2.4
	l4,1.1l2.5,1l1.7,0.3l1.1,1.5v2.1l0.7,0.4l2.8-1.1l2.8,1.2l1.3,1.2l2.1-1.1l4.7,1.2l1.2-0.8l3.8-1.1l3.1,0.6l1.2,2.2l-1.8,0.5
	l-0.2,1.4l1.2,1.3l0.1,2.1l-3,2.8l-8.7,4.7l-2.9,2.7l-6.6,1.5l-4.5,1.5l-2.2,0.5l-4.1,3.8l1.1,0.3l1.2,1.2l-0.4,0.6l-2.5,1.1h-0.9
	l-2.9,4.6l-2.6,3.3l-1.5,1.5l-1.5,2.1l-3.2,5.6l-0.1,1.6l1.6,5.5l2.2,2.7l2.4,1.1l0.6,1l-0.8,1l-2.4,1.7l-4.3,2.3l-1.8,1.9l-0.3,1.8
	l-1.3,0.8l-0.5,2.5l-1.8,4.4l1.3,1.2l-1.3,0.8l-6.5,0.3l-4.1,2.8l-2,2.4l-1.9,4.5l-2.2,2.6l-1,0.5l-1.5-1.2l-1.9-0.1l-1.9,0.3l-1,1
	l-1.5,0.5l-1.5-0.5l-4.6-0.2l-2.3,0.8l-1.9-0.5l-3.2-0.3l-7,0.6l-4,3.4h-3.4l-3.1,1.2l-2.1,3l-0.5,1.6l-1-0.3l-0.3,1.2l-2.1,0.8
	l-2.4-1l-2-1.5l-1-0.1l-1.6-2.2l-1.2-3.1V621l-1.5-0.6l-0.3-1.4l0.2-1.6l-1.2-2l-5-3.7l-3.7-0.3l-3,0.5l-1.1-6.4l0.8-2.2l3.5-4.3
	l2.1-0.6l0.7-2.4l-1.7,0.2l-3-4.3l0.9-4l3.2-3l0.6-2.4l-0.5-0.8l-1.7-0.4l-1.6-3.2l-0.3-1.9l-1.4-1.2l-1.1-1.9l1.1-0.3h4.3l1-0.5
	l1.7-3.5v-1.9l-1.4-1.3l0.2-1l2.7-2.1l-0.4-1.1l0.4-3.8l-0.4-3.5l-0.8-2l2-1.6l1.1-1.6l1.6-1.4l2.1-1.1l2.5-2.5l-0.3-1.1l-1.9-0.9
	l-1.9-0.2l-0.1-3.1l-0.7-1.1l-5.2-0.1l-1.5-0.5l-0.8,1.4l-2.5,0.9h-1.4l-2.2-0.8l-2.9,0.1l-3,1.1l-0.9-1.3l1.3-1.9l-1-1.8l-4.1,1
	l-1.9,0.9l-1.2,1.1l-1.3-0.1V535l2.6-2.6l-1.6-0.2l1.2-1.9l-1-1l0.1-2.6l-2.3,0.9l-0.5-1.2l1.4-2.2l-1.4-0.2l-2.3-2.5l0.8-3.1l2-1
	l1.9-1.5l2.6,0.3l1.7-0.3l3.6-1.6l-0.4-1.5l0.4-0.7l3.2-1.7l2-0.2l1.9-0.9l1.3,0.5l1.1-0.1l1.3,0.6l1.7,1.6l2.5,0.6l2-0.5l3.6-0.1
	l1.7,0.2l3.2-0.3l1.8,0.1l2.9-0.8l2.3,1l4.4,0.4l2.6,0.8l7.2,1.4h2.7l3.7-0.8l1.6-0.5l1.5,0.3l2.1-0.6l2.3,1l4.7,1.3l2.1-1.3
	l3.4,0.6l3.3,1.3l1.8,0.1l2.6-0.3L379.4,514.8L379.4,514.8z"/>
<path id="FR" class="st40" d="M521.2,524.1l-0.3,2.3l1,1.7l0.6,6.5l-1.8,3.2l0.1,3l-1.6,4.3l-0.8,1.1l-3.8-2l-1.2-1.1l1-1.8
	l-2.2-0.9l0.4-1.7l-0.2-0.9l-1.6-0.5l1-1.3v-0.8l-1.5-1l-0.3-0.9l1.3-1.1l-0.6-0.9l0.1-1.3l0.9-1.9l1.2-0.9l2.8-0.8l1.2-1.1l1.9,0.6
	l0.6-1.2l-0.2-2.7l0.3-1.1l1.3,0.5L521.2,524.1L521.2,524.1z M387.3,476.2l-0.4,1.4l-1.9-2.4l1-0.5L387.3,476.2z M471.7,420.6
	l2.1,1.2h1.4l2-0.6l1.3,0.7l1.4,0.1l3.5,4.3l1.8-0.7l1.4,0.4l0.3,0.9l2.1,0.1l3-0.6l2,1.4l4.8,0.8l1.6,0.6l0.1,1.3l-3.5,3.8
	l-1.4,5.5l-1,1.8l-0.3,1.5l0.2,2.4l-0.6,2v1.5l1.1,1.3l-1.5,0.7l-0.8,1.4l-2.7,0.3l-0.8-0.8h-1.1l-1.8,1.4l1.3,1.1l-0.6,0.9l-3.8,4
	l-2.1,0.9l-0.5,2.9l-3,2.2l-1.1,2.9l0.8,0.7l-0.3,1.5l-1.5,1v1l1.4,0.1l2.3-1.6l-0.5-1.3l2.3-1.5l1.9-0.1l2.2,0.3l0.8,2.2l-0.5,1.7
	l2.3,2.3l0.9,1.4l-2.6,1.7l0.1,1.6l0.9,0.6l1.7,2.6l1.8,1.6l-0.8,2.5l-1.2,0.3l-1.7,1.3l-1.9-0.2l-0.8,0.4l1.5,3.1l3.2,1.4l0.5,1.7
	l-0.8,0.7l-1.4,2.5l0.7,1.3l0.1,1.4l0.9,0.9l5.1,2.4l3.3-0.6l0.3,2l-2.1,2.6l0.2,1.5l-0.6,0.3l-0.8,0.3l-2.4,1.1l-3.9,3.4l-1.8,1
	l-0.7,1.8l-2,1.4L481,519l-2.3,1l-1.1-0.4h-2.8l-1.7-1.2l-3.4-0.8l-1.1-1.8l-2.5-0.1l-0.8-1.5l-1.9,0.3l-1.5,0.7l-2-0.1l-5.9-1.8
	l-1.4-1.4l-1.7,0.5l-1.6,1.6l-6.5,4.1l-2.6,4.3l-0.1,1.2l0.7,3.9l1.6,2.5l-3.1-0.6l-3.8,1.1l-1.2,0.8l-4.7-1.2l-2.1,1.1l-1.3-1.2
	l-2.8-1.2v-1.5l-2.6-0.6l-0.9,0.7l-1.1-1.5l-1.7-0.3l-2.5-1l-4-1.1l-0.8,2.4h-4.7l-0.7-0.4l-3.1,0.4l-3.2-2.1l-3.6,0.4l-2.2-2.1
	l-2.2-0.2l-4.4-1.7l-1.8,0.4l0.3-3.2l-4.3-1.3l-0.5-1.3l2-0.5l1.9-1.9l1.7-7.1l1.3-8.3l1-1.6l1.2-0.4l-1-1.2l-1.1,1.5l0.7-7.6
	l0.5-2.8l0.9-3l3.1,2.4l0.8,1l0.9,3.4l0.6,0.1l-1.1-4.6l-1.8-2.3l-3.6-2.3l-0.5-1.3l1.8-0.6l-0.5-1.8l-0.5-5.9l-3-0.6l-4.8-2.6
	l-1.7-2.6l-1.6-1.9l-0.4-1.7l0.9-1.8l-0.8-1.1l-1.4-0.8l1.1-1.6l-3-0.2l-1.8-0.5l-0.3-1.1l1.3-1.4l-1.6-0.8l-2.6,0.2l-0.2-1.7
	l-2.2,0.3l-1.2-0.3l-1.1-1.1l-1.3,0.2l-2.2-0.4l-0.8-0.7l-4.8-1.3l-2-0.1l-1.9,0.6l-1.1-0.3l-1.3-2.2l-3.1-1.1l0.6-0.7l3.1-0.6
	l0.6-0.7l-2.2-0.9l-0.2-1.2l1.6,0.3l0.1-1.2l-4,0.1l-0.4-1.3l0.5-1.4l2.3-1.2l5.8-1.4l2.5,0.2l1.7-0.2l3-1.6l2.9-0.4l2.7,0.8
	l2.5,2.8l1.2,1l3.1-1.7l4.4,0.1l0.9,0.9l1.2-1.7l1,1l4.7-0.2l-1.5-2.5l-0.2-6l-1.3-1.7l-2.1-4.3l0.2-1.4l3.2,0.3l2.7-0.6l1.3,0.4
	l0.3,2.8l1.1,1.6h2.2l2.3,0.5l3,0.1l4.3,0.8l1.8-0.5l3.5-2l-1.8-0.7l-0.2-0.7l0.9-2.2l5.2-2.5l3.7-0.7l3.8-1.3l2-1.4l1.2-1.8
	l0.5-1.3l0.3-6.8l1-2.2l2.9-1.6l6.4-1.1l0.9-0.5l0.9,2.2v1.2l2.9,2.4l3.2-1l1.6,1.8l0.5,2l4.2,1.1l0.6,2l0.9-0.3l3.6,0.4l1.6,1.1
	l-0.4,1.6l0.7,0.7l-0.7,1.4l0.5,0.6l2.3,0.3l2.2-0.3l1.3-0.6l0.5-1.4l1.9-0.6l-0.8,2.7l0.6,0.6l0.4,2l1.7,0.1l3.3,1.5l2.8,2.6
	L471.7,420.6L471.7,420.6z"/>
<path id="PT_1_" class="st41" d="M306,611.9l-1.2,0.2l-4.5,2.5H299l-2.5-1.1l-4.5-0.4l-1.5-0.3l-1.8,0.7h-1.5l-1.1,1l-0.8-0.3l1-2.1
	l1.6-4.1v-2.6l0.4-2.2l-0.3-2.1l-0.7-1.4l1.1-3.5v-1.8l-0.9-2.3l2.8,0.3l-1.7-1.4h-1.5l-2.3,0.9l-1.5,0.1l0.1-1.4l-0.5-1.8l2-0.6
	l1.6-1.7l-0.3-1.6L285,586l-0.6,1.4l-2.8,0.7l-1.5-0.5v-1.9l0.6-1.7l0.4-2.3l0.8-2.2l-0.2-1.4l1.6-1.3l1.4-1.9l4.3-8.9l-0.6-1
	l1.7-6.6l1.2-2.3l0.6-4.3l-0.2-2l-0.7-2l-0.7-4.3v-1.4l-0.9-1.8l0.1-1l1.4-1.7l1.2-1.1l1.9-0.9l4.1-1l1,1.8l-1.3,1.9l0.9,1.3l3-1.1
	l2.9-0.1l2.2,0.8h1.4l2.5-0.9l0.8-1.4l1.5,0.5l5.2,0.1l0.7,1.1l0.1,3.1l1.9,0.2l1.9,0.9l0.3,1.1l-2.5,2.5l-2.1,1.1l-1.6,1.4
	l-1.1,1.6l-2,1.6l0.8,2l0.4,3.5l-0.4,3.8l0.4,1.1l-2.7,2.1l-0.2,1l1.4,1.3v1.9l-1.7,3.5l-1,0.5h-4.3l-1.1,0.3l1.1,1.9l1.4,1.2
	l0.3,1.9l1.6,3.2l1.7,0.4l0.5,0.8l-0.6,2.4l-3.2,3l-0.9,4l3,4.3l1.7-0.2l-0.7,2.4l-2.1,0.6l-3.5,4.3l-0.8,2.2L306,611.9L306,611.9z"
	/>
<path id="CY" class="st42" d="M843.2,646.3L843.2,646.3H843H843.2L843.2,646.3z M843.2,646.3L843.2,646.3h0.2l0.1,0.1h-0.1
	L843.2,646.3L843.2,646.3L843.2,646.3z M842.8,646L842.8,646L842.8,646L842.8,646v-0.2V646L842.8,646L842.8,646z M846.3,645.2
	l0.2,0.1l0.3,0.3l0.2,0.4l0.1,0.3l0.2,0.2l0.2,0.1h-0.2H847l-0.3-0.1l-0.2-0.2h-0.2l-0.7,0.1l-0.6,0.1l-0.1,0.1l-0.1,0.1h-0.3h-0.3
	l-0.1-0.1l0.2-0.1h0.1l-0.1-0.3h-0.2l-0.2-0.1v-0.4l-0.1-0.1l-0.3-0.1v-0.2l0.1-0.1l0.2-0.1l0.1,0.1l0.1,0.1l0.2-0.1l0.1-0.1
	l0.1-0.1l0.1-0.1l0.2,0.2l0.2,0.1h0.1l0.2,0.1h0.1l0.3-0.1h0.2l0.1,0.1h0.2h0.1h0.1L846.3,645.2L846.3,645.2z M842.3,646.3v0.2
	l-0.3,0.1l-0.3,0.3v0.2l-0.1,0.3v0.3v0.3v0.3v0.1h-0.1l-0.1,0.1v0.3l-0.1,0.1h-0.2h-0.4l-0.2,0.1l-0.1,0.1l-0.1,0.2l-0.1,0.1
	l-0.2,0.1l-0.4,0.1l-0.4,0.2l-0.3,0.1l-0.2-0.3l0.1,0.5l-0.4,0.2l-0.9,0.2l-0.2,0.1l-0.1,0.1l-0.2,0.1h-0.2l-0.9-0.1l-1,0.1
	l-0.1,0.1l-0.2,0.1l-0.6,0.5l-0.1,0.3h-0.3l-0.3,0.1v0.1l-0.1-0.1l-0.1-0.2l0.1-0.2l0.1,0.1h0.3l-0.1-0.4l-0.4-0.1l-0.2,0.2
	l-0.1,0.1l-0.2-0.1v0.1l-0.4-0.1l-0.3-0.2l-0.1-0.1v-0.2h-0.1h-0.1h-0.1h-0.1l-0.1,0.1v0.1h-0.2l-0.1,0.2h-0.2h-0.2l-0.1,0.1
	l0.1,0.2l-0.2,0.1h-0.5l-0.6-0.1l-0.5-0.2l-0.7-0.4l-0.3-0.1l-0.3-0.1H827l-0.3-0.1l-0.2-0.2l-0.6-0.4l-0.1-0.1l-0.1-0.4v-0.1
	l-0.1-0.1l-0.4-0.9l-0.1-0.1l-0.3-0.2l-0.2-0.1l-0.1-0.1l-0.1-0.2v-0.2l0.1-0.2l-0.3-0.4l-0.1-0.2v-0.4l-0.1-0.2l-0.3-0.5l-0.2-0.3
	l-0.1-0.4l0.1-0.3h0.1l0.3,0.1l0.4,0.5l0.3,0.1l0.2,0.1h0.6l0.4-0.2l0.3-0.4l0.3-0.4l0.1-0.5l0.1-0.3l0.2-0.1l0.1-0.1v-0.1h0.1
	l0.1,0.1h0.1h0.2l0.1,0.1l0.2,0.2h0.2h0.1l0.2-0.2l0.1-0.2v-0.2l0.4,0.1l0.2,0.4l0.1,0.2l0.1,0.2l0.2,0.1l0.4,0.1l0.3,0.1l0.2,0.2
	l0.2,0.1l0.1,0.2v0.2l0.1,0.1l0.1,0.1h0.1l0.4-0.1l0.1-0.2l0.1-0.2l0.1-0.1l0.1,0.1l0.1,0.1l0.2,0.1h0.2l0.2-0.1l0.2-0.2l0.2-0.2
	l0.2-0.1l0.3-0.2l0.1-0.2h0.2l0.3,0.1h0.3h0.4l0.1-0.1h0.1l0.1-0.2l0.3-0.2h0.2l0.2,0.1l0.1,0.1h0.2h0.1l0.2,0.2l0.2,0.2l0.2,0.1
	l0.3,0.1h0.1l0.1-0.1v-0.1l0.1-0.2l0.3-0.3h0.1h0.2h0.3h0.2h0.1v0.2l0.1,0.2l0.1,0.1l0.2,0.2l0.2,0.2v0.1l0.1,0.3v0.2v0.3v0.4
	l-0.1,0.3l0.1,0.2l0.1,0.1h0.2h0.2v-0.3v-0.4l0.1-0.1l0.1-0.1l0.1-0.1l0.1,0.1l0.1,0.4l0.1,0.2l0.1,0.1l0.3-0.1v-0.2l0.1-0.1h0.2
	l0.1,0.1h0.2l0.1-0.1l0.1,0.1h0.1l0.3,0.2h0.2h0.1L842.3,646.3L842.3,646.3z"/>
<rect id="_x30_" x="399.9" y="390.8" class="st1" width="0" height="0"/>
<rect id="_x31_" x="575.4" y="412" class="st1" width="0" height="0"/>
<rect id="_x32_" x="521" y="266.6" class="st1" width="0" height="0"/>
<text transform="matrix(1 0 0 1 330.3335 568.7773)" class="st43 st44">Spain</text>
<text transform="matrix(1 0 0 1 404.6642 472.1)" class="st43 st44">France</text>
<text transform="matrix(1 0 0 1 367.4502 379.5)" class="st43 st44">U.K.</text>
<text transform="matrix(1 0 0 1 224.39 342.9001)" class="st43 st44">Ireland</text>
<text transform="matrix(1 0 0 1 554.9002 197.3001)" class="st43 st44">Sweden</text>
<text transform="matrix(1 0 0 1 651.5999 236.6999)" class="st43 st44">Finland</text>
<text transform="matrix(1 0 0 1 466.3501 258.9001)" class="st43 st44">Norway</text>
<text transform="matrix(1 0 0 1 506.1002 494.3004)" class="st43 st44">Italy</text>
<text transform="matrix(1 0 0 1 485.4004 393.7504)" class="st43 st44">Germany</text>
<text transform="matrix(1 0 0 1 596.7004 384.071)" class="st43 st44">Poland</text>
<text transform="matrix(1 0 0 1 214.1907 564.0996)" class="st43 st44">Portugal</text>
<text transform="matrix(1 0 0 1 700.1001 368.2996)" class="st43 st44">Belarus</text>
<text transform="matrix(1 0 0 1 753.9997 428.3998)" class="st43 st44">Ukraine</text>
<text transform="matrix(1 0 0 1 560 458.5001)" class="st43 st45">Austria</text>
<text transform="matrix(1 0 0 1 483.1632 465.2827)" class="st43 st46">Swizerland</text>
<text transform="matrix(1.1847 0 0 1 669.9496 580.5997)" class="st43 st47">Greece</text>
<text transform="matrix(1 0 0 1 807.316 587.9496)" class="st43 st44">Turkey</text>
<text transform="matrix(1 0 0 1 926.3427 538.6999)" class="st43 st48">Georgia</text>
<rect x="598.8" y="478.5" class="st49" width="161.1" height="27.4"/>
<text transform="matrix(1 0 0 1 602.5995 499.6001)" class="st43 st50">Eastern Europe</text>
<text transform="matrix(1 0 0 1 181.479 203.5999)" class="st43 st51">Iceland</text>
</svg>
